<svg id="OBJECTS" xmlns="http://www.w3.org/2000/svg" viewBox="0 0 500 500"><defs><style>.cls-1{fill:#feac14;}.cls-2,.cls-4,.cls-8{fill:#fff;}.cls-3{fill:#3c3c3b;}.cls-4{font-size:35.66px;font-family:Amarillo;}.cls-5{letter-spacing:-0.01em;}.cls-6{fill:none;stroke:#fff;}.cls-6,.cls-8{stroke-miterlimit:10;}.cls-7{fill:#ffda00;}.cls-8{stroke:#3c3c3b;stroke-width:1.6px;}</style></defs><path class="cls-1" d="M172.35,428.07a16.92,16.92,0,0,0,3.53-11,14.73,14.73,0,0,0-3.43-9.13q6.31,3.94,12.94,7.3a44.34,44.34,0,0,0,.19,4.6,22.24,22.24,0,0,0,.43,3.83c.66,2.83,2.36,5.28,4.1,7.61,1.48,2,3,3.94,4.59,5.85l1-5.41a19.25,19.25,0,0,0,.5-5.34c-.37-3.8-2.65-6.58-5.57-8.59q7,3.25,14.25,5.82c-.24,3.94,1.73,8.1,4.07,11.16a33.46,33.46,0,0,0,9.4,8c-.85-3.66-.07-7.66-1.58-11.09a15.9,15.9,0,0,0-5.44-6q6.42,2,12.94,3.36a3.1,3.1,0,0,0,.45,1.16c1.44,2.4,4.8,3.54,7.45,3.64,3.38.12,6.65-1.06,9.83-2.22l-6-2.82a21.12,21.12,0,0,0-6.59-2.22c-1.66-.18-4.21.13-4.94,1.41-2.3-.49-4.6-1-6.87-1.61a23.06,23.06,0,0,0,5.87-2.94,45.92,45.92,0,0,0,7.29-6.23,20,20,0,0,0-19.61,7.33c-3.79-1.16-7.54-2.46-11.22-3.9a11.47,11.47,0,0,0,2.81,0,20.11,20.11,0,0,0,7-2.46c.89-.47,5.7-4,6.51-3.69-7.25-3.13-17.85-2.59-24,2.89a161.42,161.42,0,0,1-15.56-8.08,22.31,22.31,0,0,0,9.15,1,24.74,24.74,0,0,0,12-5.29,19,19,0,0,0-19.36-2.4c-2.33,1.06-4.47,2.62-7,3.23a5.24,5.24,0,0,0,.42.54,162.94,162.94,0,0,1-13.46-9.56,18.4,18.4,0,0,0,11.11.62c3.47-1,6.49-3.14,9.74-4.71-7.87-4.5-19.28-5.81-27.54-1.49q-4.93-4.35-9.5-9.08a17.7,17.7,0,0,0,11.7,2.12,32.81,32.81,0,0,0,11.94-5l-8.56-2.61c-3.23-1-6.53-2-9.91-1.9-2.83.06-6.16,1.05-8,3.3a4.09,4.09,0,0,0-1.34-1.05,1.58,1.58,0,0,0-.64-.12,157.42,157.42,0,0,1-19.63-27.72l-.94.51a156.59,156.59,0,0,0,19.52,27.52,4.52,4.52,0,0,0-1.17,1,14.42,14.42,0,0,0-3.37,9.89,23.55,23.55,0,0,0,2.87,10.2,34.33,34.33,0,0,0,3.35,5.22,27.38,27.38,0,0,0,4.59-15,21.73,21.73,0,0,0-.83-5.35q4.92,5.06,10.3,9.71a22.37,22.37,0,0,0-3.38,7.47,14.28,14.28,0,0,0,.23,8.91C150,411.87,152,414,154,416a20.39,20.39,0,0,0-.54-21.84l-.26-.39q5.5,4.68,11.43,8.89,2.25,1.59,4.55,3.1a35.13,35.13,0,0,0-2,7.35,15.91,15.91,0,0,0,.72,8.3,23.57,23.57,0,0,0,2,3.59c.6,1,1.21,2,1.82,2.93.1.16.25.35.44.31A.46.46,0,0,0,172.35,428.07Z"/><path class="cls-1" d="M80.91,287.48a17,17,0,0,0-4.25,10.76,14.77,14.77,0,0,0,2.83,9.34q-6-4.36-12.43-8.14a44,44,0,0,0,.11-4.6A21.44,21.44,0,0,0,67,291c-.47-2.86-2-5.42-3.59-7.86-1.35-2.08-2.75-4.12-4.19-6.14l-1.38,5.34a19.48,19.48,0,0,0-.84,5.29c.12,3.81,2.21,6.73,5,8.92-4.52-2.46-9.14-4.72-13.84-6.73.49-3.91-1.2-8.19-3.33-11.39A33.26,33.26,0,0,0,36,269.81c.61,3.7-.44,7.64.84,11.16a15.88,15.88,0,0,0,5,6.32c-4.18-1.58-8.42-3-12.69-4.19a3.12,3.12,0,0,0-.37-1.18c-1.28-2.5-4.55-3.85-7.19-4.12-3.36-.34-6.7.62-9.95,1.56l5.83,3.21a20.82,20.82,0,0,0,6.42,2.65c1.64.28,4.2.14,5-1.09,2.26.64,4.52,1.32,6.75,2.06a23,23,0,0,0-6.05,2.54A46.55,46.55,0,0,0,22,294.47a20,20,0,0,0,20-6q5.55,2.1,10.93,4.61a11.9,11.9,0,0,0-2.81-.2,20.26,20.26,0,0,0-7.09,2c-.92.41-6,3.65-6.73,3.25,7,3.61,17.62,3.76,24.11-1.3a162,162,0,0,1,15,9.07,22.28,22.28,0,0,0-9.07-1.58A24.67,24.67,0,0,0,54,308.78a19,19,0,0,0,19.14,3.66c2.4-.91,4.64-2.32,7.17-2.77-.12-.19-.25-.38-.39-.56a159.56,159.56,0,0,1,12.79,10.41,18.46,18.46,0,0,0-11-1.35c-3.52.78-6.67,2.71-10,4.07,7.56,5,18.85,7,27.37,3.29q4.64,4.65,8.88,9.67a17.73,17.73,0,0,0-11.52-2.89,32.9,32.9,0,0,0-12.24,4.2l8.37,3.16c3.15,1.2,6.38,2.4,9.75,2.54,2.82.12,6.21-.64,8.22-2.77a3.75,3.75,0,0,0,1.27,1.13,1.56,1.56,0,0,0,.62.17,157.29,157.29,0,0,1,17.77,28.93l1-.45a156.67,156.67,0,0,0-17.65-28.72,4.87,4.87,0,0,0,1.22-.88,14.44,14.44,0,0,0,4-9.64,23.49,23.49,0,0,0-2.2-10.37,34.1,34.1,0,0,0-3-5.42,27.47,27.47,0,0,0-5.56,14.7,21.7,21.7,0,0,0,.48,5.39q-4.57-5.37-9.63-10.36a22.3,22.3,0,0,0,3.85-7.23,14.18,14.18,0,0,0,.36-8.89c-.87-2.7-2.75-4.94-4.58-7.11a20.38,20.38,0,0,0-.9,21.82l.24.4q-5.19-5-10.81-9.61c-1.43-1.16-2.88-2.28-4.34-3.39a35,35,0,0,0,2.48-7.2,15.9,15.9,0,0,0-.17-8.33,24.34,24.34,0,0,0-1.72-3.7l-1.62-3c-.09-.17-.23-.37-.42-.34A.42.42,0,0,0,80.91,287.48Z"/><path class="cls-1" d="M356.36,154.56a18.27,18.27,0,0,1,8.59,9.11,15.91,15.91,0,0,1,.9,10.53q4.33-6.81,9.24-13.17c-.77-1.45-1.33-3.05-2-4.58a24.15,24.15,0,0,1-1.36-3.94c-.68-3.07-.15-6.26.46-9.34q.78-3.94,1.76-7.86l3.51,4.81a20.39,20.39,0,0,1,3,5c1.42,3.88.49,7.66-1.44,11q5.34-6.45,11.22-12.33c-2.07-3.73-2.08-8.71-1.23-12.79a36.28,36.28,0,0,1,5.44-12.22c.87,4,3.5,7.51,3.63,11.56a17.19,17.19,0,0,1-2.53,8.38q5.35-4.91,11.08-9.31a3.25,3.25,0,0,1-.1-1.33c.29-3,3-5.7,5.58-7,3.25-1.69,7-2.07,10.63-2.42-1.52,1.85-3,3.71-4.57,5.56a22.76,22.76,0,0,1-5.39,5.25c-1.54.94-4.18,1.83-5.49.92q-3,2.32-6,4.78a24.74,24.74,0,0,1,7.1.12,50.91,50.91,0,0,1,10,2.69,21.7,21.7,0,0,1-22.57,2q-4.74,4.35-9.15,9a12.63,12.63,0,0,1,2.74-1.33,21.74,21.74,0,0,1,7.94-.85c1.09.05,7.45,1.29,8.08.57-5.62,6.44-16.23,10.85-24.78,8.37a174.61,174.61,0,0,0-11.44,15.14,24.28,24.28,0,0,1,8.48-5.23,26.72,26.72,0,0,1,14.17-.42,20.61,20.61,0,0,1-17.79,11.37c-2.78.05-5.6-.47-8.32.09,0-.24.1-.48.16-.72a177.36,177.36,0,0,0-8.69,15.61,20,20,0,0,1,10.57-5.79c3.86-.63,7.8,0,11.71.06-5.6,8.07-16.13,14.66-26.21,14.3q-2.79,6.54-5.05,13.29a19.25,19.25,0,0,1,10.43-7.53c4.52-1.32,9.33-1.22,14-.69l-7.15,6.54c-2.7,2.47-5.46,5-8.79,6.47-2.79,1.25-6.51,1.85-9.38.51a4.27,4.27,0,0,1-.82,1.65,1.48,1.48,0,0,1-.56.41A170.26,170.26,0,0,0,339.79,257l-1.16-.07a169.89,169.89,0,0,1,6.24-36,5.09,5.09,0,0,1-1.59-.4,15.66,15.66,0,0,1-7.9-8.08,25.37,25.37,0,0,1-1.94-11.31,36.43,36.43,0,0,1,.83-6.66,29.72,29.72,0,0,1,11.5,12.55,23.94,23.94,0,0,1,1.68,5.62q2.44-7.23,5.53-14.29a24.31,24.31,0,0,1-6.78-5.72,15.47,15.47,0,0,1-3.93-8.81c-.2-3.06.78-6.06,1.76-9a22.09,22.09,0,0,1,9.66,21.58c0,.18-.06.34-.08.5q3.19-7.12,7-14,1.46-2.59,3-5.14a38,38,0,0,1-5.38-6.25,17.14,17.14,0,0,1-3.17-8.44,25.15,25.15,0,0,1,.24-4.42c.13-1.23.27-2.47.41-3.7,0-.21.08-.47.29-.52A.51.51,0,0,1,356.36,154.56Z"/><path class="cls-2" d="M249.38,415.88a15.27,15.27,0,0,1,4.41-9.46,13.34,13.34,0,0,1,7.88-4c-4.41-.83-8.76-1.87-13.06-3.09a40.92,40.92,0,0,1-3,2.94,21.11,21.11,0,0,1-2.63,2.27,19.11,19.11,0,0,1-7.38,2.53c-2.2.4-4.41.76-6.63,1.06l2.64-4.21a17.55,17.55,0,0,1,2.94-3.84c2.58-2.3,5.8-2.74,9-2.28-4.43-1.43-8.78-3-13-4.88-2.25,2.75-6.11,4.3-9.53,4.9a30.18,30.18,0,0,1-11.16-.44c2.81-1.9,4.74-5,7.85-6.39a14.32,14.32,0,0,1,7.27-.63c-3.64-1.75-7.19-3.66-10.64-5.7a2.91,2.91,0,0,1-1,.49c-2.43.71-5.36-.6-7.17-2.16-2.31-2-3.76-4.78-5.16-7.5l5.72,1.83a18.87,18.87,0,0,1,5.73,2.56c1.21.91,2.71,2.67,2.41,4q2.74,1.64,5.55,3.14a20.81,20.81,0,0,1-2.1-5.54,42,42,0,0,1-1-8.6,18.1,18.1,0,0,1,8.51,16.88q4.84,2.33,9.83,4.3a9.85,9.85,0,0,1-1.88-1.72,18,18,0,0,1-3.11-5.89c-.3-.86-1.31-6.17-2.05-6.43,6.72,2.36,13.42,9.22,14.14,16.62A146.71,146.71,0,0,0,258,400.84a20.23,20.23,0,0,1-6.68-5,22.33,22.33,0,0,1-4.7-10.85,17.2,17.2,0,0,1,14.31,10.28c.89,2.13,1.36,4.48,2.64,6.41-.2,0-.41.07-.61.1a143.91,143.91,0,0,0,14.78,1.91,16.62,16.62,0,0,1-7.75-6.4c-1.68-2.79-2.38-6.06-3.57-9.09,8,1.84,16.34,8,19.18,15.9q5.92.14,11.86-.2a16,16,0,0,1-9.06-5.76,29.82,29.82,0,0,1-4.86-10.63l7.28,3.52a28.92,28.92,0,0,1,7.73,4.81c1.83,1.78,3.44,4.48,3.29,7.11a3.87,3.87,0,0,1,1.54.13,1.46,1.46,0,0,1,.49.31,142.22,142.22,0,0,0,30-6.34l.31.91a141.38,141.38,0,0,1-29.81,6.28,4.45,4.45,0,0,1,.19,1.35,13.09,13.09,0,0,1-3.83,8.62,21.18,21.18,0,0,1-8.16,5,30.71,30.71,0,0,1-5.43,1.4,24.9,24.9,0,0,1,6.18-12.78,19.69,19.69,0,0,1,3.84-3c-4.24.23-8.51.27-12.78.12a20.47,20.47,0,0,1-2.34,7,12.89,12.89,0,0,1-5.62,5.76,19.81,19.81,0,0,1-7.5,1.42A18.41,18.41,0,0,1,282.68,405l.42-.1q-6.53-.27-13-1.11c-1.64-.22-3.28-.47-4.92-.74a31.8,31.8,0,0,1-3.17,6.1,14.44,14.44,0,0,1-5.57,5.07,22.16,22.16,0,0,1-3.5,1.18l-3,.82c-.16.05-.38.08-.48-.06A.45.45,0,0,1,249.38,415.88Z"/><circle class="cls-3" cx="247.77" cy="248.83" r="104.45"/><text class="cls-4" transform="translate(173.6 254.93)">I<tspan class="cls-5" x="37.55" y="0">d</tspan><tspan x="66.16" y="0">rinks </tspan></text><polygon class="cls-3" points="251.4 165.73 254 173.59 262.11 173.67 255.75 178.86 259.89 187.33 251.01 182.31 242.43 187.18 246.48 178.78 240.32 172.93 248.33 173.37 251.4 165.73"/><path class="cls-6" d="M199.74,262.56a320.68,320.68,0,0,1,124.74-.19"/><path class="cls-2" d="M147.67,162.68c13.55,19.54,15,44.81,14.87,68.59s-1.24,48.51,8.37,70.26c3,6.74,6.93,13,10.86,19.25l10.32,16.39c3.84,6.09,7.75,12.36,6.67,20.34-.4,3-2.53,7.36-4.87,9.32-27.13,22.63-59.63,24.24-71.29,22.68-5.89-.78-11.71-6-13.81-11.55l-.1-.27c-1.56-4.31-1.81-9-2-13.55l-1-19.35c-.36-7.37-.73-14.77-2.16-22-4.61-23.33-19.7-43-33.47-62.34S43,219.53,42.88,195.75Z"/><path class="cls-3" d="M147.8,162.3c.44.57.89,1.18,1.31,1.79s.72,1.14,1.09,1.72c.7,1.14,1.37,2.29,2,3.48a73.85,73.85,0,0,1,3.41,7.26,89.77,89.77,0,0,1,4.55,15.37,170.06,170.06,0,0,1,3,31.82c.15,10.66-.28,21.29,0,31.9s1,21.22,3.55,31.51a83.12,83.12,0,0,0,5.11,15A119.71,119.71,0,0,0,179.47,316q4.26,6.74,8.61,13.42l4.35,6.69c1.44,2.23,2.93,4.47,4.21,6.86a28.73,28.73,0,0,1,2.91,7.7,19.73,19.73,0,0,1,0,8.38,19.28,19.28,0,0,1-3.85,7.48,11.34,11.34,0,0,1-1.58,1.47l-1.58,1.26c-1,.84-2.15,1.61-3.22,2.42a103.27,103.27,0,0,1-28.75,14.22,107.59,107.59,0,0,1-15.64,3.66,94.53,94.53,0,0,1-16,1.18c-1.35,0-2.69-.09-4-.19a22.76,22.76,0,0,1-4.08-.61,18.32,18.32,0,0,1-7.2-4,20.63,20.63,0,0,1-5-6.56,27.84,27.84,0,0,1-2.05-7.89c-.34-2.68-.45-5.35-.57-8l-.37-8c-.25-5.31-.46-10.63-.81-15.93a116.31,116.31,0,0,0-1.92-15.73,91.72,91.72,0,0,0-4.47-15.12,150.43,150.43,0,0,0-15-27.85c-5.85-8.85-12.21-17.37-18.21-26.18A171.34,171.34,0,0,1,49.34,226.9C45,217.13,42.1,206.58,42,195.75v-.67l.66-.21q13.14-4.25,26.34-8.32l26.34-8.18Zm-.26.76-52.28,17-26,8.35q-13,4.18-26.06,8.22l.65-.88a76.68,76.68,0,0,0,6.76,30.61c4.2,9.72,9.82,18.77,15.79,27.52S78.82,271.09,84.77,280,96.26,298,100.15,308a78.56,78.56,0,0,1,4.36,15.49,136.52,136.52,0,0,1,1.52,16q.36,8,.8,15.94l.42,8c.14,2.66.26,5.3.62,7.9a26.89,26.89,0,0,0,2,7.47,19.16,19.16,0,0,0,4.68,6,16.58,16.58,0,0,0,6.62,3.63,24,24,0,0,0,3.8.54c1.31.09,2.62.15,3.93.16a92.27,92.27,0,0,0,15.74-1.21A105.2,105.2,0,0,0,160,384.24,97.48,97.48,0,0,0,188.11,370c1-.8,2.11-1.57,3.12-2.4l1.53-1.25a8.81,8.81,0,0,0,1.32-1.25,17.18,17.18,0,0,0,3.39-6.59,18.67,18.67,0,0,0,.06-7.45,27,27,0,0,0-2.6-7.21c-1.16-2.33-2.55-4.58-3.93-6.85l-4.15-6.81-8.36-13.59a131.69,131.69,0,0,1-7.72-14,86,86,0,0,1-5.22-15.16c-2.54-10.41-3.39-21.12-3.67-31.76s.06-21.3,0-31.91a168.91,168.91,0,0,0-2.8-31.61,91.08,91.08,0,0,0-4.4-15.22,71.78,71.78,0,0,0-3.25-7.22c-.6-1.17-1.25-2.32-1.93-3.46l-1-1.66C148.12,164.1,147.83,163.6,147.54,163.06Z"/><path class="cls-1" d="M130.19,174.13c6.69-2.22,13.38-6.67,15.32.11,5.66,19.71,7.63,59.91,7.76,74.14.16,17.74-.36,36.19,6.76,52.52a117.9,117.9,0,0,0,8,14.49l7.56,12.34a36.16,36.16,0,0,1,4.5,9.22c.91,3.32,1.16,7.42-1.11,9.81C160.67,366,136.26,365.88,126.85,365a12.3,12.3,0,0,1-10.44-7.83l0-.09a36.53,36.53,0,0,1-1.6-10.14l-.9-14.44A119.56,119.56,0,0,0,112.1,316c-3.56-17.45-14.56-32.26-24.61-46.88C79.4,257.38,58.87,224.68,52.3,205.6c-2.25-6.55,4.79-7.28,11.36-9.45Z"/><path class="cls-2" d="M36.81,181.41c.47,1.44,1.25,3,.74,4.38A7.19,7.19,0,0,1,35.91,188a10.28,10.28,0,0,0-1.43,11.28c1.83,3.55,5.68,5.71,9.61,6.4s8,.1,11.88-.69a121,121,0,0,0,14-3.69c6-2,11.87-4.41,18.1-5.38s13-.28,18.06,3.52a34,34,0,0,1,6.29,6.87l8.31,11c1.48,1.95,3,3.95,5.16,5.13,4.63,2.55,10.88.19,13.83-4.21s3.1-10.17,1.87-15.32c-1.13-4.72-3.34-9.16-4.06-14s.17-11,4.62-12.94c20.7-9.07,12.1-27.69,6.8-30.23-1.37-.66-2.9-.92-4.27-1.56-2.49-1.17-4.22-3.44-6.17-5.37-5.67-5.61-14.07-8.61-21.87-7s-14.52,8.31-15.4,16.24c-5.22-4.37-12.15-7-18.88-6S69.4,148.3,68.4,155a10.67,10.67,0,0,0-11.17-.23c-4.58,2.68-3.34,7.88-6.56,11-2.45,2.38-7,1.34-10,3.5A11,11,0,0,0,36.81,181.41Z"/><path class="cls-3" d="M37.19,181.28c.23.69.52,1.38.73,2.13a4.27,4.27,0,0,1,0,2.43,5.27,5.27,0,0,1-1.35,2,10.49,10.49,0,0,0-1.32,1.68,9.86,9.86,0,0,0-.92,8.22,10.69,10.69,0,0,0,5.69,6,17.78,17.78,0,0,0,8.39,1.56A53.12,53.12,0,0,0,57.14,204q4.35-.9,8.61-2.13c5.7-1.58,11.19-3.89,17-5.45s12-2.2,17.91-.39a19.15,19.15,0,0,1,7.83,4.63,76.25,76.25,0,0,1,5.82,6.88l5.56,7c1.87,2.31,3.54,4.85,5.71,6.39a8.45,8.45,0,0,0,7.57.94,11.33,11.33,0,0,0,6.25-5,16.17,16.17,0,0,0,2-8.11,27.35,27.35,0,0,0-1.47-8.49c-.87-2.8-2-5.59-2.7-8.55a21.24,21.24,0,0,1-.45-9.19,11.92,11.92,0,0,1,1.73-4.41,8.33,8.33,0,0,1,1.64-1.82,8.76,8.76,0,0,1,1-.67c.37-.2.74-.38,1.06-.52a26.69,26.69,0,0,0,7.31-4.64,15.3,15.3,0,0,0,4.55-15.68,16.17,16.17,0,0,0-4.19-7.29,5.68,5.68,0,0,0-1.6-1.07,18.36,18.36,0,0,0-2-.68,13.36,13.36,0,0,1-2.21-.83,11.85,11.85,0,0,1-2-1.31,33.35,33.35,0,0,1-3.29-3.2,29.19,29.19,0,0,0-3.16-2.94,25.26,25.26,0,0,0-7.54-4.1,20.58,20.58,0,0,0-16.67,1.21c-5,2.78-8.87,7.85-9.51,13.57l-.14,1.25-1-.81a26.44,26.44,0,0,0-8.62-4.84,20.59,20.59,0,0,0-9.68-.83,17.31,17.31,0,0,0-8.57,4.15,14,14,0,0,0-4.63,8.11l-.22,1.49-1.22-.87a9.86,9.86,0,0,0-10.61,0,8,8,0,0,0-3.12,4.56c-.64,1.86-1.2,4.07-2.81,5.71a6.13,6.13,0,0,1-2.9,1.66,25.31,25.31,0,0,1-3.08.6,14.85,14.85,0,0,0-2.89.66,6.87,6.87,0,0,0-2.4,1.53A10.64,10.64,0,0,0,37.19,181.28Zm-.76.25a11.52,11.52,0,0,1,3-11.76A7.94,7.94,0,0,1,42.1,168a16.41,16.41,0,0,1,3.06-.79c2-.38,4.07-.66,5.25-2s1.75-3.32,2.37-5.29a13.06,13.06,0,0,1,1.26-3,8,8,0,0,1,2.32-2.46,11.56,11.56,0,0,1,6.23-2,10.79,10.79,0,0,1,6.34,1.81l-1.44.62a15.42,15.42,0,0,1,5.16-9.29,18.14,18.14,0,0,1,9.6-4.45,22.15,22.15,0,0,1,10.41,1.22,29.47,29.47,0,0,1,9,5.17l-1.09.44a19.18,19.18,0,0,1,1.12-4.49,20.64,20.64,0,0,1,2.21-4.05A22.81,22.81,0,0,1,107,136a24.3,24.3,0,0,1,3.74-2.69,24,24,0,0,1,4.23-1.83,22.77,22.77,0,0,1,4.55-.83,24.49,24.49,0,0,1,4.61.13,27.72,27.72,0,0,1,4.49,1,29.23,29.23,0,0,1,4.24,1.78,29.79,29.79,0,0,1,3.89,2.48,30.19,30.19,0,0,1,3.4,3.08,30.24,30.24,0,0,0,3.1,3,10.12,10.12,0,0,0,3.66,1.85,19,19,0,0,1,2.18.81,7.23,7.23,0,0,1,2.05,1.45,17.64,17.64,0,0,1,4.23,8.21,18.07,18.07,0,0,1-.12,9.12,17.56,17.56,0,0,1-4.79,7.77,27.74,27.74,0,0,1-7.58,5c-2.65,1-4,3.66-4.47,6.42a19.7,19.7,0,0,0,.49,8.49c.71,2.82,1.81,5.57,2.73,8.44a29.67,29.67,0,0,1,1.59,9,18.73,18.73,0,0,1-2.14,9.05,13.31,13.31,0,0,1-7.24,6,11.15,11.15,0,0,1-4.84.58,9.49,9.49,0,0,1-4.63-1.76A16.34,16.34,0,0,1,121,219.3c-.93-1.21-1.79-2.4-2.67-3.6l-5.22-7.24a58.46,58.46,0,0,0-5.46-6.93,17,17,0,0,0-7.33-4.43,25.29,25.29,0,0,0-8.62-1,40,40,0,0,0-8.65,1.51c-5.68,1.57-11.18,3.91-16.94,5.56q-4.31,1.26-8.7,2.21a45.85,45.85,0,0,1-8.94,1.25,18.42,18.42,0,0,1-8.95-1.82A11.79,11.79,0,0,1,33.44,198,10.73,10.73,0,0,1,36,187.25a4.56,4.56,0,0,0,1.17-1.66C37.59,184.35,36.9,183,36.43,181.53Z"/><path class="cls-3" d="M191,346.61a33.83,33.83,0,0,0,1.1,3.89,9.47,9.47,0,0,1,.17,4.34,10.74,10.74,0,0,1-1.71,4,8.74,8.74,0,0,1-3,2.87.49.49,0,0,1-.66-.19.51.51,0,0,1,0-.4,14.72,14.72,0,0,1,2-3.49,18.72,18.72,0,0,0,1.91-3.24,6.05,6.05,0,0,0,.46-3.67c-.23-1.28-.73-2.55-1.06-3.93a.45.45,0,0,1,.33-.54.45.45,0,0,1,.55.33A.09.09,0,0,1,191,346.61Z"/><path class="cls-3" d="M114.15,371.16a10.58,10.58,0,0,0,5.1,6.93,17.71,17.71,0,0,0,8.53,2.39,55.73,55.73,0,0,0,9-.53c3-.39,6-.91,8.94-1.54A109.58,109.58,0,0,0,163,373c2.79-1.16,5.54-2.38,8.25-3.72s5.36-2.78,8-4.25a.32.32,0,0,1,.35.54,74.81,74.81,0,0,1-7.74,4.9c-2.71,1.44-5.47,2.76-8.3,3.93s-5.74,2.14-8.67,3S149,379,146,379.54s-6,1-9.07,1.31a62.2,62.2,0,0,1-9.16.31,18.46,18.46,0,0,1-8.82-2.54,11.61,11.61,0,0,1-5.41-7.34.32.32,0,0,1,.26-.38.33.33,0,0,1,.38.26Z"/><path class="cls-3" d="M151.44,179.41c1.05,2.89,2.09,5.8,2.92,8.77s1.63,5.95,2.27,9c.31,1.51.57,3,.82,4.57s.37,3.07.52,4.61a42.35,42.35,0,0,1-.17,9.28.32.32,0,0,1-.37.27.31.31,0,0,1-.27-.29c-.31-3.06-.47-6.1-.7-9.14l-.18-2.28-.23-2.28c-.16-1.51-.35-3-.56-4.54a76.6,76.6,0,0,0-1.79-9,78.63,78.63,0,0,0-2.86-8.72.32.32,0,0,1,.17-.42.31.31,0,0,1,.42.18Z"/><path class="cls-3" d="M50.15,212c1.71,4.3,3.67,8.49,5.69,12.65s4.26,8.2,6.61,12.18q1.75,3,3.58,5.93c1.21,2,2.43,3.93,3.68,5.86,2.49,3.89,5,7.74,7.44,11.7a.31.31,0,0,1-.1.44.32.32,0,0,1-.42-.07,101.26,101.26,0,0,1-8.19-11.25c-1.23-2-2.45-3.95-3.62-5.95s-2.28-4.05-3.38-6.1q-3.25-6.15-6.22-12.44c-2-4.18-3.85-8.44-5.67-12.7a.33.33,0,0,1,.6-.25Z"/><path class="cls-3" d="M98.86,294.1a96.1,96.1,0,0,1,5,10.32,95.86,95.86,0,0,1,3.78,10.84l.73,2.78.63,2.81.5,2.84.4,2.85A49.71,49.71,0,0,1,110,338a.32.32,0,0,1-.64,0c-.29-3.8-.55-7.56-1-11.31l-.35-2.81-.44-2.8-.5-2.79-.58-2.78a76.88,76.88,0,0,0-3.3-10.87,74.79,74.79,0,0,0-4.92-10.25.32.32,0,1,1,.55-.33Z"/><path class="cls-3" d="M158.34,251.88a97,97,0,0,0-.31,17.95,103.58,103.58,0,0,0,3,17.69l1.21,4.31,1.39,4.26,1.54,4.21,1.71,4.14a155.61,155.61,0,0,0,8.13,16,.32.32,0,0,1-.12.44.31.31,0,0,1-.41-.09,77.71,77.71,0,0,1-9-15.72l-1.69-4.22-1.5-4.28L161,292.19l-1.1-4.4a113.34,113.34,0,0,1-2.18-36,.32.32,0,1,1,.64.06Z"/><path class="cls-3" d="M173.51,332.67a53.35,53.35,0,0,0-15.09-.19,57,57,0,0,0-14.54,3.92L140.44,338l-3.33,1.75-3.23,1.92-3.1,2.13A76.5,76.5,0,0,0,119.6,353.8a.32.32,0,0,1-.45,0,.32.32,0,0,1-.05-.42,45,45,0,0,1,10.8-10.87l3.2-2.15,3.34-1.92,3.46-1.68,3.56-1.45a63.1,63.1,0,0,1,14.88-3.52,59.06,59.06,0,0,1,15.26.22.33.33,0,0,1,.28.37.33.33,0,0,1-.37.27Z"/><path class="cls-3" d="M128.26,358.77a51.63,51.63,0,0,0,15.05-1.88q1.83-.5,3.63-1.08l1.8-.58,1.78-.63c2.38-.85,4.72-1.77,7.15-2.57a.33.33,0,0,1,.41.21.31.31,0,0,1-.12.37A29,29,0,0,1,151,356c-1.22.41-2.45.81-3.69,1.15s-2.51.6-3.78.84a86.51,86.51,0,0,1-15.31,1.41.32.32,0,0,1-.32-.32.33.33,0,0,1,.32-.33Z"/><path class="cls-3" d="M164.33,348.26a13.69,13.69,0,0,0,4.55-2.58l2-1.67a8.55,8.55,0,0,1,2.23-1.41.33.33,0,0,1,.45.18.32.32,0,0,1,0,.27,5.52,5.52,0,0,1-1.73,2.14,13.31,13.31,0,0,1-2.32,1.46c-1.65.79-3.29,1.51-4.95,2.21a.32.32,0,1,1-.25-.59Z"/><path class="cls-3" d="M140.25,353.73a54.43,54.43,0,0,0,12.45-4c1-.46,2-.92,3-1.4s2-1,2.92-1.45c1.94-1,3.87-2,5.92-2.82a.33.33,0,0,1,.43.18.34.34,0,0,1-.09.37,26.16,26.16,0,0,1-5.58,3.62c-1,.48-2,.95-3,1.39s-2.07.81-3.11,1.18a126.46,126.46,0,0,1-12.75,3.6.32.32,0,1,1-.15-.63Z"/><path class="cls-3" d="M148,222.82c.18,3,.42,6.06.54,9.09s.28,6.07.36,9.11c0,1.52.05,3,.05,4.56s-.07,3-.12,4.56a56.44,56.44,0,0,1-1.08,9.06.32.32,0,0,1-.39.25.31.31,0,0,1-.25-.31c-.09-3.05.05-6.06.21-9.08l.22-4.52.21-4.53c.13-3,.17-6,.11-9.07s-.21-6.06-.51-9.07a.34.34,0,0,1,.29-.35.31.31,0,0,1,.35.29Z"/><path class="cls-3" d="M79.65,249.44c2,3.18,4.21,6.28,6.31,9.42s4.3,6.22,6.48,9.3l3.26,4.64,3.18,4.69c2.11,3.14,4.14,6.33,5.94,9.67a.33.33,0,0,1-.14.44.32.32,0,0,1-.4-.08c-2.4-2.94-4.56-6-6.65-9.19l-3.11-4.74-3-4.79q-3-4.8-6.1-9.56c-2.09-3.15-4.13-6.33-6.27-9.44a.32.32,0,1,1,.53-.36Z"/><path class="cls-3" d="M89.4,257.55a83.9,83.9,0,0,0,5.08,6.94c.88,1.13,1.77,2.26,2.58,3.44a17.15,17.15,0,0,1,2.07,3.79.33.33,0,0,1-.2.42.31.31,0,0,1-.33-.06,16.73,16.73,0,0,1-2.79-3.29c-.82-1.18-1.55-2.41-2.28-3.65a83.83,83.83,0,0,0-4.66-7.22.33.33,0,0,1,.07-.45.31.31,0,0,1,.45.07Z"/><path class="cls-3" d="M60.11,211.11a100.55,100.55,0,0,0,4.77,11.28c.89,1.84,1.8,3.66,2.64,5.52a38.76,38.76,0,0,1,2.23,5.72.32.32,0,0,1-.23.4.32.32,0,0,1-.35-.12,30.24,30.24,0,0,1-3-5.37c-.87-1.86-1.61-3.78-2.33-5.7-1.41-3.85-2.82-7.69-4.31-11.51a.31.31,0,0,1,.18-.41.32.32,0,0,1,.42.18Z"/><path class="cls-3" d="M149.2,274.69a66.13,66.13,0,0,0,1.21,9.51,67.94,67.94,0,0,0,2.57,9.21l.83,2.25.89,2.21.92,2.2,1,2.17c1.34,2.89,2.77,5.71,4.15,8.62a.32.32,0,0,1-.15.43.33.33,0,0,1-.4-.09,40.52,40.52,0,0,1-5-8.33l-1-2.23-.89-2.26-.78-2.3-.71-2.32a92.7,92.7,0,0,1-2.15-9.44,91,91,0,0,1-1.18-9.59.32.32,0,1,1,.64-.05Z"/><path class="cls-3" d="M111.73,301A113,113,0,0,1,117.14,317c.34,1.37.63,2.75.91,4.13s.44,2.78.62,4.18a36.19,36.19,0,0,1,.07,8.45.32.32,0,0,1-.64,0c-.39-2.78-.64-5.53-.93-8.29-.14-1.38-.33-2.75-.52-4.12s-.4-2.75-.64-4.12a65.52,65.52,0,0,0-4.87-15.93.32.32,0,0,1,.59-.26Z"/><path class="cls-7" d="M70.61,223.28c1.53,6.79,5,13,8.55,19A340.12,340.12,0,0,0,108,283c1.75,2.14,3.88,4.43,6.65,4.53,2.92.1,5.41-2.48,6.1-5.32s0-5.83-1-8.59C117.35,267,113.6,261,109.88,255L87.73,219.48c-2.4-3.86-6.75-10.52-12.15-9.93C69.32,210.23,69.59,218.71,70.61,223.28Z"/><path class="cls-7" d="M121.3,310.72c1.53,1.29,3.86,2.34,5.41,1.08a4.34,4.34,0,0,0,1.23-2.15c1.76-5.73-.63-20.76-9.45-18.89C108.55,292.87,117.13,307.22,121.3,310.72Z"/><path class="cls-3" d="M49.94,182.78a50.29,50.29,0,0,1,14.44-6.07A49.58,49.58,0,0,1,80,175.35c5.25.34,10.39,1.35,15.52,1.9s10.27.69,15.26-.64a.32.32,0,0,1,.4.23.33.33,0,0,1-.19.38,24.65,24.65,0,0,1-7.73,1.77,42.61,42.61,0,0,1-7.91-.24c-2.61-.31-5.19-.72-7.76-1.14s-5.12-.85-7.69-1.12a45.8,45.8,0,0,0-29.63,6.83.32.32,0,0,1-.45-.09.33.33,0,0,1,.1-.45Z"/><path class="cls-3" d="M148.66,151.2a16.63,16.63,0,0,1,.71,12.77,14.57,14.57,0,0,1-1.51,3,15.15,15.15,0,0,1-2.18,2.54,11.13,11.13,0,0,1-5.9,3,.33.33,0,0,1-.37-.28.34.34,0,0,1,.17-.34,24.39,24.39,0,0,0,5.08-3.44,15,15,0,0,0,2.05-2.24,14.49,14.49,0,0,0,1.6-2.61,13.51,13.51,0,0,0-.23-12,.32.32,0,0,1,.14-.43.31.31,0,0,1,.43.13Z"/><path class="cls-3" d="M146.64,156.19a19.61,19.61,0,0,1-.84,6.11,9.94,9.94,0,0,1-1.39,2.83,5.46,5.46,0,0,1-2.44,2,.35.35,0,0,1-.44-.2.33.33,0,0,1,0-.29h0a22,22,0,0,1,1.63-2.41,22.82,22.82,0,0,0,1.56-2.39,9.57,9.57,0,0,0,1.26-5.62.31.31,0,0,1,.29-.35.32.32,0,0,1,.35.29Z"/><path class="cls-3" d="M131.38,218.32a8.86,8.86,0,0,0,3.82-3.58,11.1,11.1,0,0,0,1.5-5,18.73,18.73,0,0,0-.49-5.22c-.38-1.72-.92-3.4-1.36-5.19a.33.33,0,0,1,.24-.4.33.33,0,0,1,.34.13,13.46,13.46,0,0,1,2.26,5.13,14.87,14.87,0,0,1,.16,5.68,14,14,0,0,1-2.08,5.25,11,11,0,0,1-4.11,3.8.32.32,0,0,1-.43-.14.31.31,0,0,1,.13-.43Z"/><path class="cls-3" d="M132.07,212.87a5.77,5.77,0,0,0,1.09-3.26c0-.58,0-1.14.05-1.7a4.46,4.46,0,0,1,.36-1.72h0a.39.39,0,0,1,.5-.19.47.47,0,0,1,.13.11,2.72,2.72,0,0,1,.52,1.88,6.07,6.07,0,0,1-.44,1.88,31.9,31.9,0,0,1-1.68,3.36.32.32,0,1,1-.57-.31Z"/><path class="cls-3" d="M37.79,196.15A4.76,4.76,0,0,0,40,199.09a10.52,10.52,0,0,0,3.61,1.4,24.85,24.85,0,0,0,7.84.19,55.43,55.43,0,0,0,7.72-1.61c2.54-.69,5.07-1.48,7.71-2a.33.33,0,0,1,.38.25.33.33,0,0,1-.17.36,37.24,37.24,0,0,1-7.53,2.87c-1.31.34-2.63.63-4,.87a36.38,36.38,0,0,1-4,.42,30.09,30.09,0,0,1-8.09-.67,12.06,12.06,0,0,1-3.79-1.56,5.75,5.75,0,0,1-2.51-3.28h0a.32.32,0,0,1,.24-.39.33.33,0,0,1,.39.23Z"/><path class="cls-3" d="M44.86,197.4a17.2,17.2,0,0,0,5.45-.33c.9-.17,1.78-.38,2.67-.52a8.43,8.43,0,0,1,2.76-.13.35.35,0,0,1,.29.4.31.31,0,0,1-.14.23,6.17,6.17,0,0,1-2.66,1,16.52,16.52,0,0,1-2.81.18c-1.89-.06-3.74-.14-5.6-.18a.32.32,0,0,1-.32-.32.33.33,0,0,1,.33-.32Z"/><path class="cls-3" d="M122.6,135.8a14.21,14.21,0,0,0-10.11,2.82,12.89,12.89,0,0,0-3.27,4,15.08,15.08,0,0,0-1.56,4.92.34.34,0,0,1-.37.29.36.36,0,0,1-.28-.25,8,8,0,0,1,.87-5.67,11.39,11.39,0,0,1,3.94-4.21,18.8,18.8,0,0,1,10.82-2.52.31.31,0,0,1,.31.33.32.32,0,0,1-.33.31Z"/><path class="cls-3" d="M119.33,139.31a5.3,5.3,0,0,0-3.56,1.6,18.81,18.81,0,0,0-1.29,1.42,7.13,7.13,0,0,1-1.4,1.4h0a.37.37,0,0,1-.51-.07.48.48,0,0,1-.07-.2,3,3,0,0,1,.84-2.11,5.72,5.72,0,0,1,1.78-1.39,13.41,13.41,0,0,1,4.16-1.3.31.31,0,0,1,.37.27.32.32,0,0,1-.27.37Z"/><path class="cls-3" d="M87.16,146.69a11.94,11.94,0,0,0-8.07,1.67,13.18,13.18,0,0,0-3,2.69,24.33,24.33,0,0,0-2.3,3.37h0a.32.32,0,0,1-.45.11.31.31,0,0,1-.16-.29,6.89,6.89,0,0,1,1.76-4.18,10.34,10.34,0,0,1,3.64-2.72A17.7,17.7,0,0,1,87.23,146a.33.33,0,1,1,0,.65Z"/><path class="cls-3" d="M84.53,150a6.61,6.61,0,0,0-3.31,1c-.5.29-1,.61-1.47.87a3.84,3.84,0,0,1-1.68.56h0a.37.37,0,0,1-.4-.35.32.32,0,0,1,0-.17A2.81,2.81,0,0,1,79,150.59a6.6,6.6,0,0,1,1.78-.62c1.25-.23,2.45-.4,3.66-.59a.32.32,0,0,1,.37.27.34.34,0,0,1-.27.37Z"/><path class="cls-3" d="M44,171.86a6.11,6.11,0,0,0-3.32,3.8,12.6,12.6,0,0,0-.52,2.45c-.09.83-.13,1.62-.28,2.54h0a.35.35,0,0,1-.4.29.34.34,0,0,1-.22-.15,4.1,4.1,0,0,1-.6-2.87,7,7,0,0,1,1-2.76,10.87,10.87,0,0,1,4.08-3.89.32.32,0,0,1,.44.13.34.34,0,0,1-.13.44Z"/><path class="cls-3" d="M44.39,174.72a2.18,2.18,0,0,0-1,1.51,6.6,6.6,0,0,1-.21.85,1.25,1.25,0,0,1-.66.73h0a.46.46,0,0,1-.6-.13,1.14,1.14,0,0,1-.13-1.15,2.48,2.48,0,0,1,.64-.9c.56-.5,1.07-.93,1.56-1.42a.32.32,0,0,1,.46,0,.33.33,0,0,1,0,.46Z"/><path class="cls-3" d="M62.6,156.68a5.33,5.33,0,0,0-3.29,2c-.42.49-.75,1-1.11,1.53a7,7,0,0,1-1.24,1.5h0a.36.36,0,0,1-.51,0,.37.37,0,0,1-.09-.19,3.08,3.08,0,0,1,.6-2.15,5.82,5.82,0,0,1,1.6-1.53,14,14,0,0,1,3.92-1.74.32.32,0,0,1,.39.23.31.31,0,0,1-.22.39Z"/><path class="cls-3" d="M86.78,209.05a2.31,2.31,0,0,0,1.81.4,2.42,2.42,0,0,0,1.53-1.08c.71-1.07.46-2.69-.64-3a2.36,2.36,0,0,0-2.94.6,2.9,2.9,0,0,0-.47,1.51,2.42,2.42,0,0,0,.15.87A2,2,0,0,0,86.78,209.05Zm-.38.54a3.66,3.66,0,0,1-1.52-1.94,3,3,0,0,1,.38-2.6,3.23,3.23,0,0,1,2.33-1.35,4,4,0,0,1,2.47.6,2.88,2.88,0,0,1,.93.94,2.82,2.82,0,0,1,.37,1.24,3.41,3.41,0,0,1-.68,2.28A3.24,3.24,0,0,1,86.4,209.59Z"/><path class="cls-3" d="M98.63,206.75a1.43,1.43,0,0,0,.41-1.13,1.34,1.34,0,0,0-.61-1,3.13,3.13,0,0,0-.61-.28.85.85,0,0,0-.52,0,1.52,1.52,0,0,0-.89.65,1,1,0,0,0,.23,1.57,3,3,0,0,0,.89.45A1.15,1.15,0,0,0,98.63,206.75Zm.48.44a2.81,2.81,0,0,1-1.53,1,2.18,2.18,0,0,1-1.88-.43A2.47,2.47,0,0,1,95,207a2.15,2.15,0,0,1-.3-1,2.38,2.38,0,0,1,.82-1.79,2.72,2.72,0,0,1,1.66-.73,2,2,0,0,1,.92.21,4.41,4.41,0,0,1,.7.43,2,2,0,0,1,.77,1.51A2.3,2.3,0,0,1,99.11,207.19Z"/><path class="cls-3" d="M93.29,213.09a1,1,0,0,0,1.11,1,.89.89,0,0,0,.76-1.08.84.84,0,0,0-.8-.59,1.65,1.65,0,0,0-1.06.69l-.06.09a.35.35,0,0,1-.49.08.32.32,0,0,1-.1-.13,1.47,1.47,0,0,1,.18-1.48,2,2,0,0,1,1.4-.79,1.94,1.94,0,0,1,1.55.61,2.06,2.06,0,0,1,.55,1.45,1.94,1.94,0,0,1-1.9,1.83,1.86,1.86,0,0,1-1.8-1.66h0a.33.33,0,0,1,.29-.37.33.33,0,0,1,.37.29Z"/><path class="cls-2" d="M99.38,222.33a2.42,2.42,0,1,0,2.07-2.72A2.41,2.41,0,0,0,99.38,222.33Z"/><path class="cls-2" d="M108,230a1.49,1.49,0,1,0,1.28-1.68A1.5,1.5,0,0,0,108,230Z"/><path class="cls-2" d="M100.18,233.83a1.17,1.17,0,1,0,1-1.32A1.18,1.18,0,0,0,100.18,233.83Z"/><path class="cls-3" d="M143.31,324.72a3.32,3.32,0,0,0,1.17,2.46,3,3,0,0,0,2.59.67,6.26,6.26,0,0,0,1.38-.47,2.36,2.36,0,0,0,1-.79,3.68,3.68,0,0,0,.55-2.53,3,3,0,0,0-1-2.1,1.73,1.73,0,0,0-.44-.25,2.62,2.62,0,0,0-.56-.18,3,3,0,0,0-1.16,0,5,5,0,0,0-2.25.94,3.2,3.2,0,0,0-.88,1A3.08,3.08,0,0,0,143.31,324.72Zm-.89,0a5.33,5.33,0,0,1,.9-3.44,4.54,4.54,0,0,1,3.19-1.91,4.72,4.72,0,0,1,1.94.13,4.47,4.47,0,0,1,.92.35,3.41,3.41,0,0,1,.86.6,4,4,0,0,1,1.06,1.69,5,5,0,0,1,.29,1.82,5.24,5.24,0,0,1-1.21,3.35,3.48,3.48,0,0,1-1.54,1,9,9,0,0,1-1.61.41,4,4,0,0,1-3.24-1A4.57,4.57,0,0,1,142.42,324.76Z"/><path class="cls-3" d="M142.82,300.13a1.48,1.48,0,0,0,.53,1.14,1.36,1.36,0,0,0,1.2.29,2.79,2.79,0,0,0,.66-.24.91.91,0,0,0,.41-.36,1.68,1.68,0,0,0,.18-1.15,1.08,1.08,0,0,0-1.33-1,3.39,3.39,0,0,0-1,.33A1.21,1.21,0,0,0,142.82,300.13Zm-.69,0a2.94,2.94,0,0,1,.41-1.86,2.27,2.27,0,0,1,1.71-1.09,2.63,2.63,0,0,1,1.08.08,2.32,2.32,0,0,1,1,.54,2.51,2.51,0,0,1,.71,1.94,2.86,2.86,0,0,1-.69,1.78,2,2,0,0,1-.84.53,5.16,5.16,0,0,1-.84.2,2.14,2.14,0,0,1-1.7-.55A2.43,2.43,0,0,1,142.13,300.15Z"/><path class="cls-2" d="M136.61,313a3.83,3.83,0,1,0,2.3-4.9A3.82,3.82,0,0,0,136.61,313Z"/><path class="cls-2" d="M151.41,314a2.27,2.27,0,1,0,1.37-2.91A2.27,2.27,0,0,0,151.41,314Z"/><circle class="cls-2" cx="158.18" cy="331.06" r="1.68" transform="translate(-146.4 126.49) rotate(-30.57)"/><path class="cls-3" d="M117.7,206.29a1.76,1.76,0,0,0,1.34.45,1.84,1.84,0,0,0,1.24-.68,1.55,1.55,0,0,0-.23-2.35,1.79,1.79,0,0,0-2.26.21,2.22,2.22,0,0,0-.48,1.1A1.45,1.45,0,0,0,117.7,206.29Zm-.32.37a2.76,2.76,0,0,1-1-1.59,2.24,2.24,0,0,1,.51-1.92,2.43,2.43,0,0,1,1.86-.82,3,3,0,0,1,1.81.66,2.11,2.11,0,0,1,.63.78,2.35,2.35,0,0,1,.17,1,2.66,2.66,0,0,1-.7,1.67A2.45,2.45,0,0,1,117.38,206.66Z"/><path class="cls-3" d="M126.82,205.54a1.05,1.05,0,0,0,.4-.82,1,1,0,0,0-.37-.8,2.69,2.69,0,0,0-.44-.26.69.69,0,0,0-.39-.07,1.18,1.18,0,0,0-.72.41.79.79,0,0,0,0,1.21,2.74,2.74,0,0,0,.63.41A.87.87,0,0,0,126.82,205.54Zm.33.37a2.16,2.16,0,0,1-1.24.62,1.64,1.64,0,0,1-1.38-.48,1.71,1.71,0,0,1,.18-2.72,2.06,2.06,0,0,1,1.32-.41,1.32,1.32,0,0,1,.68.23,3.33,3.33,0,0,1,.48.38,1.56,1.56,0,0,1,.46,1.21A1.75,1.75,0,0,1,127.15,205.91Z"/><path class="cls-3" d="M122.27,209.87a.78.78,0,0,0,.75.85c.42,0,.77-.45.67-.74a.65.65,0,0,0-.56-.51,1.2,1.2,0,0,0-.85.42l-.07.08a.26.26,0,0,1-.36,0l-.07-.11a1.32,1.32,0,0,1,1.38-1.59,1.53,1.53,0,0,1,1.42,1.73,1.47,1.47,0,0,1-1.59,1.22,1.41,1.41,0,0,1-1.22-1.4h0a.25.25,0,0,1,.5,0S122.27,209.86,122.27,209.87Z"/><path class="cls-3" d="M134.9,141.93a1.71,1.71,0,0,0-1.4-.13,1.81,1.81,0,0,0-1,.95c-.44.88-.1,2.07.76,2.23a1.81,1.81,0,0,0,2.16-.73,2.35,2.35,0,0,0,.21-1.18A1.48,1.48,0,0,0,134.9,141.93Zm.23-.44a2.73,2.73,0,0,1,1.33,1.31,2.25,2.25,0,0,1,0,2A2.46,2.46,0,0,1,134.8,146a3,3,0,0,1-1.91-.22,2.25,2.25,0,0,1-.8-.62,2.21,2.21,0,0,1-.39-.89,2.58,2.58,0,0,1,.3-1.79A2.45,2.45,0,0,1,135.13,141.49Z"/><path class="cls-3" d="M126.22,144.79a1.06,1.06,0,0,0-.21.88,1,1,0,0,0,.56.7,2.25,2.25,0,0,0,.48.15.68.68,0,0,0,.4,0,1.15,1.15,0,0,0,.6-.57.79.79,0,0,0-.32-1.17,2.69,2.69,0,0,0-.71-.25A.86.86,0,0,0,126.22,144.79Zm-.41-.29a2.16,2.16,0,0,1,1-.89,1.68,1.68,0,0,1,1.46.14,1.72,1.72,0,0,1,.46,2.69,2,2,0,0,1-1.18.71,1.33,1.33,0,0,1-.72-.06,4.07,4.07,0,0,1-.56-.27,1.51,1.51,0,0,1-.73-1.06A1.81,1.81,0,0,1,125.81,144.5Z"/><path class="cls-3" d="M129.62,139.51a.78.78,0,0,0-.93-.65.69.69,0,0,0-.47.88.64.64,0,0,0,.66.37,1.22,1.22,0,0,0,.73-.62l0-.08a.25.25,0,0,1,.34-.11l.1.09a1.31,1.31,0,0,1-1,1.86,1.51,1.51,0,0,1-1.78-1.34,1.47,1.47,0,0,1,1.25-1.56,1.4,1.4,0,0,1,1.51,1.07h0a.25.25,0,0,1-.49.13S129.62,139.53,129.62,139.51Z"/><path class="cls-3" d="M39.93,190.91a1.16,1.16,0,0,0,1.69-.15,1,1,0,0,0-.15-1.55,1.17,1.17,0,0,0-1.49.14,1.49,1.49,0,0,0-.32.72A1,1,0,0,0,39.93,190.91Zm-.22.24a1.83,1.83,0,0,1-.65-1,1.49,1.49,0,0,1,.34-1.27,1.66,1.66,0,0,1,1.22-.54,2,2,0,0,1,1.19.43,1.36,1.36,0,0,1,.53,1.15,1.74,1.74,0,0,1-.46,1.1A1.62,1.62,0,0,1,39.71,191.15Z"/><path class="cls-3" d="M45.93,190.41a.68.68,0,0,0,0-1.06,1.1,1.1,0,0,0-.28-.17.48.48,0,0,0-.26-.05.74.74,0,0,0-.47.27.52.52,0,0,0,0,.8,2.34,2.34,0,0,0,.42.27A.57.57,0,0,0,45.93,190.41Zm.21.25a1.4,1.4,0,0,1-.81.41,1.09,1.09,0,0,1-.91-.32,1.23,1.23,0,0,1-.38-.95,1.21,1.21,0,0,1,.5-.84,1.35,1.35,0,0,1,.87-.27.83.83,0,0,1,.44.15,2.51,2.51,0,0,1,.32.25A1.12,1.12,0,0,1,46.14,190.66Z"/><path class="cls-3" d="M42.93,193.27a.53.53,0,0,0,.5.56c.27,0,.5-.3.44-.49s-.26-.36-.37-.34a.82.82,0,0,0-.56.28l0,.05a.17.17,0,0,1-.24,0,.18.18,0,0,1,0-.07.86.86,0,0,1,.91-1,1,1,0,0,1,.93,1.13,1,1,0,0,1-1,.81.91.91,0,0,1-.8-.92h0a.16.16,0,0,1,.16-.17.18.18,0,0,1,.17.17S42.93,193.26,42.93,193.27Z"/><path class="cls-3" d="M90.66,151.8a1.38,1.38,0,0,0,1.42.21,1.49,1.49,0,0,0,.87-1.14,1.18,1.18,0,0,0-.17-.84,1.23,1.23,0,0,0-.35-.33,1.59,1.59,0,0,0-1.37-.2A1.37,1.37,0,0,0,90.66,151.8Z"/><path class="cls-3" d="M90.77,151.67a1.15,1.15,0,0,0,1.69-.15c.41-.49.38-1.31-.14-1.54a1.2,1.2,0,0,0-1.5.13,1.52,1.52,0,0,0-.31.73A1,1,0,0,0,90.77,151.67Zm-.21.25a1.77,1.77,0,0,1-.65-1,1.44,1.44,0,0,1,.33-1.26,1.61,1.61,0,0,1,1.23-.54,2,2,0,0,1,1.19.43,1.37,1.37,0,0,1,.53,1.15,1.77,1.77,0,0,1-.47,1.1A1.61,1.61,0,0,1,90.56,151.92Z"/><path class="cls-3" d="M96.88,151.3a.91.91,0,0,0,.13-1.21,1.59,1.59,0,0,0-.44-.33,1,1,0,0,0-1.32,1A1,1,0,0,0,96.88,151.3Z"/><path class="cls-3" d="M96.77,151.18a.7.7,0,0,0,0-1.07,1.58,1.58,0,0,0-.29-.17.37.37,0,0,0-.25,0,.73.73,0,0,0-.48.27.51.51,0,0,0,0,.79,1.39,1.39,0,0,0,.41.27A.57.57,0,0,0,96.77,151.18Zm.22.25a1.45,1.45,0,0,1-.81.4,1.09,1.09,0,0,1-.91-.31,1.27,1.27,0,0,1-.39-1,1.17,1.17,0,0,1,.51-.84,1.31,1.31,0,0,1,.86-.28,1,1,0,0,1,.45.16,1.85,1.85,0,0,1,.32.25A1.14,1.14,0,0,1,97,151.43Z"/><path class="cls-3" d="M93.61,154a.73.73,0,0,0,.6.74.71.71,0,0,0,.78-.54.69.69,0,1,0-1.37-.18"/><path class="cls-3" d="M93.78,154a.52.52,0,0,0,.49.56c.27,0,.5-.3.44-.49s-.25-.36-.37-.34a.86.86,0,0,0-.56.29l0,0a.17.17,0,0,1-.24,0,.13.13,0,0,1,0-.07.85.85,0,0,1,.9-1,1,1,0,0,1,.93,1.13,1,1,0,0,1-1,.81.92.92,0,0,1-.8-.93h0a.17.17,0,0,1,.33,0Z"/><path class="cls-3" d="M74.54,196.52a1.36,1.36,0,0,0,.79-1.19,1.48,1.48,0,0,0-.67-1.27,1.17,1.17,0,0,0-.83-.2,1.12,1.12,0,0,0-.44.17,1.62,1.62,0,0,0-.76,1.16A1.36,1.36,0,0,0,74.54,196.52Z"/><path class="cls-3" d="M74.48,196.37a1.15,1.15,0,0,0,.57-1.6c-.27-.58-1-.89-1.46-.51a1.18,1.18,0,0,0-.51,1.41,1.48,1.48,0,0,0,.53.59A1,1,0,0,0,74.48,196.37Zm.13.3a1.75,1.75,0,0,1-1.22.15,1.46,1.46,0,0,1-1-.84,1.69,1.69,0,0,1,0-1.34,2,2,0,0,1,.9-.89,1.34,1.34,0,0,1,1.26,0,1.71,1.71,0,0,1,.8.88A1.61,1.61,0,0,1,74.61,196.67Z"/><path class="cls-3" d="M77.8,194.78a.7.7,0,1,0-.18-1.07.72.72,0,0,0,.18,1.07"/><path class="cls-3" d="M77.88,194.64a.54.54,0,0,0,.72-.22.45.45,0,0,0-.26-.6c-.2,0-.44.08-.46.19a.81.81,0,0,0,0,.63l0,.06a.16.16,0,0,1-.09.22h-.08a.86.86,0,0,1-.56-1.26,1,1,0,0,1,1.42-.37,1,1,0,0,1,.29,1.28.9.9,0,0,1-1.17.34h0a.16.16,0,0,1-.08-.22.15.15,0,0,1,.21-.08Z"/><path class="cls-3" d="M91.3,173a57.1,57.1,0,0,0,9.14.48c1.53,0,3-.12,4.54-.18a36.49,36.49,0,0,1,4.56,0,.33.33,0,0,1,.1.64,13.46,13.46,0,0,1-4.59.89,32.76,32.76,0,0,1-4.65-.19c-3.08-.33-6.11-.76-9.17-1a.32.32,0,1,1,0-.64Z"/><path class="cls-3" d="M140.43,154.07a1.34,1.34,0,0,0,.54,1.31,1.52,1.52,0,0,0,1.43.18A1.23,1.23,0,0,0,143,155a1.4,1.4,0,0,0,.1-.46,1.61,1.61,0,0,0-.52-1.28A1.38,1.38,0,0,0,140.43,154.07Z"/><path class="cls-3" d="M140.59,154.1a1.17,1.17,0,0,0,1,1.37c.63.1,1.32-.33,1.25-.9a1.17,1.17,0,0,0-.87-1.21,1.56,1.56,0,0,0-.79.09A1,1,0,0,0,140.59,154.1Zm-.32-.06a1.81,1.81,0,0,1,.58-1.09,1.48,1.48,0,0,1,1.26-.35,1.69,1.69,0,0,1,1.09.78,2,2,0,0,1,.23,1.24,1.34,1.34,0,0,1-.73,1,1.68,1.68,0,0,1-1.18.15A1.61,1.61,0,0,1,140.27,154Z"/><path class="cls-3" d="M140,157.71a.69.69,0,1,0,1,.45.73.73,0,0,0-1-.45"/><path class="cls-3" d="M140.08,157.86a.51.51,0,0,0-.22.7.45.45,0,0,0,.64.13.41.41,0,0,0,.11-.48.84.84,0,0,0-.53-.34H140a.17.17,0,0,1-.13-.2.2.2,0,0,1,0-.08.87.87,0,0,1,1.36.25,1,1,0,0,1-.51,1.38,1,1,0,0,1-1.22-.49.9.9,0,0,1,.39-1.15h0a.17.17,0,0,1,.23.06.15.15,0,0,1-.06.22Z"/><path class="cls-3" d="M129.39,374.76a119.89,119.89,0,0,0,13.48-1.95,89.38,89.38,0,0,0,13.06-3.75,97.05,97.05,0,0,0,12.33-5.6c4-2.14,7.8-4.52,11.65-6.95a.32.32,0,0,1,.38.51A58.58,58.58,0,0,1,169,364.79c-2,1.07-4.1,2.07-6.21,3-1.06.44-2.14.84-3.21,1.26s-2.16.75-3.25,1.13a111,111,0,0,1-13.3,3.33c-4.48.88-9,1.43-13.55,1.92a.31.31,0,0,1-.35-.28.33.33,0,0,1,.28-.36Z"/><path class="cls-8" d="M393.5,407.51c11,4.09,22.88,7.54,34.43,5.32a16.54,16.54,0,0,0,8.31-3.71,19.94,19.94,0,0,0,3.58-5.08,185,185,0,0,0,19.28-52.26c.91-4.43,1.63-9.13.09-13.38-1.37-3.76-4.35-6.68-7.42-9.24a145,145,0,0,0-19.93-13.4l-6.48,14.11a56.68,56.68,0,0,1,12.58,4.5c2.35,1.17,4.7,2.58,6.1,4.79,2,3.23,1.62,7.41.85,11.16-2.68,13.07-8.56,25.27-14.93,37-2.57,4.75-5.77,9.87-11,11.23a17.12,17.12,0,0,1-6.06.21A41.93,41.93,0,0,1,398.37,395Z"/><path class="cls-8" d="M361.92,238.38l-90.82,145a17.42,17.42,0,0,0,3.41,23.12,280.8,280.8,0,0,0,37.07,25.76,183,183,0,0,0,47.78,19,16.62,16.62,0,0,0,19.3-9.65l66.69-157.77Z"/><path class="cls-1" d="M370.89,241.35,289,376.45A14,14,0,0,0,291.72,395a225.34,225.34,0,0,0,29.73,20.66,146.59,146.59,0,0,0,38.31,15.24,13.33,13.33,0,0,0,15.48-7.74C392.9,381.37,419.86,316.5,437.43,275Z"/><path class="cls-2" d="M451.64,289.59a8.72,8.72,0,0,1-9.44,1.69c-3-1.34-4.9-4.21-7.07-6.65s-5.22-4.69-8.43-4.07c-3.49.69-5.41,4.35-7,7.52-2.81,5.52-7.35,11.44-13.54,11.15-3.95-.19-7.45-3.14-8.94-6.81a16.47,16.47,0,0,1,.13-11.59c1-2.91,2.66-5.61,3.43-8.6a12.08,12.08,0,0,0-1.49-10c-2-2.83-6-4.38-9.21-3.12-2.51,1-4.33,3.36-6.93,4a5.93,5.93,0,0,1-6.78-3.39c-.38-.93-.51-2-1-2.87-1.26-2.5-4.53-3.23-7.32-3a6.61,6.61,0,0,0-4.18,1.65c-2.08,2.13-1.26,5.59-.93,8.56a10.51,10.51,0,0,1-1.39,7.2c-1.44,2-4.34,3.19-6.56,2-.73-.38-1.34-1-2.08-1.34-2.36-1.15-5.28.4-6.75,2.58s-2,4.84-2.9,7.3-2.58,4.94-5.13,5.58c-3,.73-6.12-1.56-7.06-4.47s-.06-6.16,1.53-8.78a43.92,43.92,0,0,1,6-7c4.46-4.71,8.46-10.13,10-16.42,2-8.28-.3-17.48,3.32-25.19a17.65,17.65,0,0,1,26.34-6.77c1.74,1.26,3.43,2.91,5.57,3,1.57.07,3-.73,4.47-1.37a23.71,23.71,0,0,1,18.14-.36,19.48,19.48,0,0,1,8.3,6.07c2.13,2.78,3.32,6.15,5.05,9.18a29,29,0,0,0,15.83,13c2.87,1,5.89,1.46,8.63,2.72a19.3,19.3,0,0,1,10.15,12.06c1.51,5.12.27,9.31-.32,14.37C453.55,281.82,455.16,286.13,451.64,289.59Z"/><path class="cls-3" d="M451.75,289.69a9,9,0,0,1-6.08,2.48,8.64,8.64,0,0,1-3.33-.55,10.7,10.7,0,0,1-2.9-1.74,50.59,50.59,0,0,1-4.6-4.8,12.68,12.68,0,0,0-5.06-3.65,5.66,5.66,0,0,0-2.93-.26,5.79,5.79,0,0,0-2.64,1.32,17.48,17.48,0,0,0-3.65,5.16c-2,3.92-4.5,7.86-8.35,10.41a10.67,10.67,0,0,1-3.16,1.4,12.41,12.41,0,0,1-1.72.32,11.5,11.5,0,0,1-1.76,0,10.61,10.61,0,0,1-6.24-2.95,12.5,12.5,0,0,1-3.54-6,16.71,16.71,0,0,1-.31-6.93,25.65,25.65,0,0,1,2.11-6.5,33.91,33.91,0,0,0,2.27-6,12.59,12.59,0,0,0,0-6,9.49,9.49,0,0,0-1.24-2.73,8.11,8.11,0,0,0-2.12-2.09,7,7,0,0,0-5.75-1.09c-1.95.54-3.54,2.15-5.51,3.32a6.85,6.85,0,0,1-3.39,1,6.68,6.68,0,0,1-3.44-1,6.33,6.33,0,0,1-2.49-2.61c-.56-1.12-.69-2.26-1.13-3.08-.87-1.68-2.95-2.4-4.95-2.49s-4.29.25-5.41,1.58-1.16,3.51-.91,5.63c.11,1.07.29,2.18.31,3.35a12.83,12.83,0,0,1-.38,3.47,8.19,8.19,0,0,1-1.56,3.19,6.59,6.59,0,0,1-2.93,2,5.18,5.18,0,0,1-3.58,0c-1.2-.44-1.93-1.38-2.84-1.72a4,4,0,0,0-2.93,0,6.62,6.62,0,0,0-2.57,1.75c-1.42,1.57-2.05,3.73-2.72,5.8a15.55,15.55,0,0,1-3,6,6.36,6.36,0,0,1-2.88,1.91,5.42,5.42,0,0,1-3.49-.15,7.32,7.32,0,0,1-4.49-5.05,10.8,10.8,0,0,1,.72-6.78,20.68,20.68,0,0,1,3.75-5.62c1.49-1.67,3.05-3.21,4.48-4.85a39.8,39.8,0,0,0,7.08-10.79c1.71-3.95,2.09-8.26,2.17-12.63s0-8.88,1.21-13.33a18.55,18.55,0,0,1,8-10.92,17.74,17.74,0,0,1,6.37-2.55,18.67,18.67,0,0,1,6.83,0,18.24,18.24,0,0,1,6.32,2.47c2,1.18,3.44,2.93,5.38,3.59a4.5,4.5,0,0,0,3-.09c1-.32,2-.86,3-1.26a23.24,23.24,0,0,1,6.5-1.58,23.9,23.9,0,0,1,13.08,2.22,20.69,20.69,0,0,1,5.5,3.88,21.67,21.67,0,0,1,3.86,5.53c1,2,1.94,4,3.09,5.77a27.31,27.31,0,0,0,4,5,28.3,28.3,0,0,0,10.76,6.79c2,.69,4.16,1.17,6.3,1.86a19.23,19.23,0,0,1,6.09,3.12,19.75,19.75,0,0,1,7.48,18c-.24,2.22-.7,4.37-1,6.54a53.07,53.07,0,0,0-.19,6.57,10.68,10.68,0,0,1-.6,3.3A7.79,7.79,0,0,1,451.75,289.69Zm-.21-.21a7.15,7.15,0,0,0,1.73-2.7,10.33,10.33,0,0,0,.51-3.18,52.33,52.33,0,0,1,.07-6.62c.23-2.2.6-4.38.74-6.55A19,19,0,0,0,454,264,19.41,19.41,0,0,0,447,253.68a17.46,17.46,0,0,0-5.66-2.77c-2.05-.63-4.23-1.06-6.36-1.83a29.65,29.65,0,0,1-11.33-7.28,28.45,28.45,0,0,1-4.08-5.38c-1.17-1.95-2-4-3-5.95a20.73,20.73,0,0,0-3.52-5.36,18.68,18.68,0,0,0-5.16-3.81,22.64,22.64,0,0,0-18.86-.66c-1,.39-2,.94-3.06,1.32a5.47,5.47,0,0,1-3.51.13c-2.32-.74-3.84-2.51-5.69-3.51a17.34,17.34,0,0,0-12.27-2,17.64,17.64,0,0,0-5.77,2.45,17.2,17.2,0,0,0-4.49,4.35,17.66,17.66,0,0,0-2.64,5.66c-1.13,4.1-1,8.49-1.2,12.9a52.36,52.36,0,0,1-.57,6.69,26.25,26.25,0,0,1-1.91,6.5,41.38,41.38,0,0,1-7.52,11.08c-3,3.3-6.48,6.1-8.23,10a9.81,9.81,0,0,0-.79,6.11,6.45,6.45,0,0,0,3.85,4.52,4.56,4.56,0,0,0,3,.18,5.57,5.57,0,0,0,2.59-1.65,14.16,14.16,0,0,0,2.86-5.72,16.79,16.79,0,0,1,2.83-6.06,7.36,7.36,0,0,1,2.8-2,4.78,4.78,0,0,1,3.51-.08c1.16.46,1.92,1.33,2.84,1.59a4.24,4.24,0,0,0,2.89-.17,5.38,5.38,0,0,0,2.34-1.79,7,7,0,0,0,1.19-2.75,11.29,11.29,0,0,0,.19-3.08c-.06-1-.24-2.11-.38-3.22a15.8,15.8,0,0,1-.18-3.47,5.91,5.91,0,0,1,1.38-3.51,6,6,0,0,1,3.29-1.82,12.43,12.43,0,0,1,3.54-.27,9,9,0,0,1,3.47.92,5.75,5.75,0,0,1,2.64,2.61c.54,1.17.62,2.29,1,3.16a5.1,5.1,0,0,0,1.92,2.18,5.57,5.57,0,0,0,2.83.82,5.69,5.69,0,0,0,2.86-.85c1.81-1,3.35-2.8,5.7-3.54a8.68,8.68,0,0,1,6.89,1,9.69,9.69,0,0,1,2.68,2.39,11.27,11.27,0,0,1,1.65,3.17,13.82,13.82,0,0,1,.32,7,29.64,29.64,0,0,1-2.39,6.37,24.55,24.55,0,0,0-2.07,6c-.83,4.06-.1,8.58,2.87,11.56a9.2,9.2,0,0,0,5.39,2.77,13.14,13.14,0,0,0,1.54,0,8.88,8.88,0,0,0,1.53-.25,9.66,9.66,0,0,0,2.85-1.26,17,17,0,0,0,4.57-4.43,36.23,36.23,0,0,0,3.31-5.59,17.69,17.69,0,0,1,3.9-5.57,7.18,7.18,0,0,1,3.21-1.58,6.85,6.85,0,0,1,3.57.33,13.63,13.63,0,0,1,5.43,4.13,52.88,52.88,0,0,0,4.27,5,8.53,8.53,0,0,0,5.78,2.43A8.35,8.35,0,0,0,451.54,289.48Z"/><path class="cls-3" d="M436.75,295.56l-3.11,7.29-3.05,7.31q-1.51,3.66-3.17,7.26a70,70,0,0,1-3.65,7,.22.22,0,0,1-.31.08.23.23,0,0,1-.1-.27c.91-2.49,2-4.9,3.1-7.29s2.25-4.77,3.4-7.15,2.26-4.76,3.34-7.17,2.14-4.83,3.13-7.27a.23.23,0,0,1,.29-.13.24.24,0,0,1,.13.3Z"/><path class="cls-3" d="M418.07,331,412,346.8c-2,5.25-4,10.5-6.12,15.73s-4.18,10.45-6.38,15.64-4.46,10.33-7,15.37a.23.23,0,0,1-.31.1.23.23,0,0,1-.11-.28c2-5.26,4.24-10.43,6.42-15.61l6.6-15.53c2.17-5.18,4.34-10.38,6.43-15.6s4.12-10.46,6.07-15.74a.23.23,0,0,1,.43.16Z"/><path class="cls-3" d="M390,403.53c-1.34,4-2.73,8-4.29,11.87s-3.16,7.8-4.93,11.62a109,109,0,0,1-5.86,11.23,16.09,16.09,0,0,1-4.42,4.7,9.35,9.35,0,0,1-6.19,1.68.23.23,0,0,1,0-.46,9.6,9.6,0,0,0,5.62-2,16.62,16.62,0,0,0,4.08-4.51c1.14-1.71,2.1-3.58,3.1-5.42s2-3.71,2.9-5.58c1.87-3.76,3.63-7.57,5.23-11.45s3-7.83,4.3-11.83a.22.22,0,0,1,.28-.15.23.23,0,0,1,.15.28Z"/><path class="cls-3" d="M338.22,290.34c-1.51,2.28-3,4.62-4.43,6.93s-2.88,4.66-4.3,7-2.86,4.68-4.33,7-3,4.59-4.7,6.76a.23.23,0,0,1-.32,0,.24.24,0,0,1-.06-.29c1.27-2.44,2.7-4.78,4.18-7.08s3-4.59,4.55-6.86,3.07-4.54,4.58-6.83,3-4.59,4.45-6.92a.23.23,0,0,1,.31-.07.22.22,0,0,1,.07.31Z"/><path class="cls-3" d="M315.93,321.3c-2.07,3.21-4,6.52-5.9,9.82s-3.72,6.69-5.56,10-3.68,6.7-5.6,10a114.15,114.15,0,0,1-6.19,9.68.23.23,0,0,1-.32,0,.22.22,0,0,1-.06-.29c1.81-3.38,3.74-6.66,5.65-10l5.81-9.89,5.85-9.87c1.93-3.3,3.93-6.56,5.94-9.82a.22.22,0,0,1,.31-.07.23.23,0,0,1,.08.31Z"/><path class="cls-3" d="M286.73,369.43c-1.64,2.21-3.15,4.52-4.6,6.86s-2.76,4.77-4,7.23a22.18,22.18,0,0,0-2.62,7.6,8.67,8.67,0,0,0,2.42,7.19.22.22,0,0,1,0,.32.23.23,0,0,1-.29,0,6.67,6.67,0,0,1-2.66-3.36,9.35,9.35,0,0,1-.54-4.29,20.42,20.42,0,0,1,2.95-7.88c1.37-2.41,2.81-4.78,4.3-7.1s3.06-4.62,4.65-6.88a.23.23,0,0,1,.37.26Z"/><path class="cls-3" d="M351.09,442.9c-5.07-1.73-10.1-3.55-15-5.63s-9.82-4.27-14.62-6.66l-3.58-1.84-3.53-1.92-3.48-2-3.43-2.1a104.24,104.24,0,0,1-13-9.53l.41-.55c4.48,2.92,8.9,5.88,13.39,8.74l3.38,2.12,3.42,2.06,3.45,2,3.48,2q7,3.87,14.35,7.06c4.9,2.09,9.88,4,15,5.66Z"/><path class="cls-3" d="M359.79,437.71a166.82,166.82,0,0,1-16.65-4.45c-1.36-.45-2.72-.94-4.07-1.45s-2.66-1.1-4-1.68a40.46,40.46,0,0,1-7.49-4.32l.34-.59c2.67,1,5.24,2.27,7.82,3.46,1.28.61,2.58,1.19,3.88,1.76s2.61,1.14,3.92,1.68a81.83,81.83,0,0,0,16.36,4.93Z"/><path class="cls-3" d="M310.47,416.39a137.46,137.46,0,0,1-17-10.42,64.17,64.17,0,0,1-7.71-6.42,17.92,17.92,0,0,1-5.12-8.72l.65-.21a28.12,28.12,0,0,0,5.61,7.81c1.13,1.17,2.33,2.28,3.57,3.36s2.48,2.17,3.75,3.22a82.21,82.21,0,0,0,16.57,10.77Z"/><path class="cls-3" d="M434.51,322a74.05,74.05,0,0,1,9.11,5.72c1.45,1.06,2.87,2.17,4.23,3.34a33.38,33.38,0,0,1,3.89,3.82,14.66,14.66,0,0,1,2.72,4.87,16.11,16.11,0,0,1,.66,5.55,29.75,29.75,0,0,1-2.78,10.49l-.64-.21c.7-3.51,1.65-6.92,1.83-10.36a14.09,14.09,0,0,0-2.75-9.59,28.21,28.21,0,0,0-3.54-3.89c-1.3-1.2-2.64-2.37-4.05-3.45a54.55,54.55,0,0,0-9-5.69Z"/><path class="cls-3" d="M450.55,365.48c-1.3,3.93-2.48,7.91-3.81,11.84s-2.67,7.86-4.2,11.74c-.79,1.92-1.61,3.84-2.51,5.73s-1.91,3.71-2.93,5.53a26,26,0,0,1-3.7,5.2,7.81,7.81,0,0,1-2.85,1.78,5,5,0,0,1-3.35,0l.19-.65a4.65,4.65,0,0,0,2.75-.41,6.6,6.6,0,0,0,2.24-1.7,38.31,38.31,0,0,0,3.35-5c1-1.77,2-3.56,3-5.4s1.85-3.68,2.72-5.54c1.73-3.75,3.25-7.6,4.64-11.5s2.66-7.84,3.84-11.81Z"/><path class="cls-3" d="M444.12,369.26c-1.32,4-2.57,7.94-3.86,11.93l-1,3c-.37,1-.76,1.95-1.15,2.92a28.47,28.47,0,0,1-3,5.55l-.61-.28a39.61,39.61,0,0,1,2.1-5.89l1.24-2.86,1.27-2.85a88.15,88.15,0,0,0,4.34-11.69Z"/><path class="cls-3" d="M420.67,408.32c-3.46-.29-6.9-.69-10.34-1.29a35.3,35.3,0,0,1-5.08-1.28,16.78,16.78,0,0,1-4.7-2.33l.27-.62a37.57,37.57,0,0,1,4.94,1.44c1.61.54,3.22,1.11,4.85,1.61a38.13,38.13,0,0,0,10.1,1.79Z"/><path class="cls-3" d="M417.85,312l-6.5,14.21L405,340.51l-6.3,14.28c-2.12,4.75-4.21,9.52-6.44,14.22a.23.23,0,0,1-.3.11.24.24,0,0,1-.11-.28c1.76-4.91,3.82-9.7,5.91-14.47s4.3-9.48,6.53-14.19l6.67-14.13c2.18-4.72,4.41-9.43,6.52-14.19a.22.22,0,1,1,.4.18Z"/><path class="cls-3" d="M356.59,281c-2.07,3.22-4.12,6.45-6.25,9.63s-4.38,6.28-6.48,9.47c-4.21,6.39-8.18,12.93-12.17,19.46l-11.91,19.63c-4,6.52-8,13.06-12.17,19.46a.21.21,0,0,1-.3.07.21.21,0,0,1-.07-.29c3.75-6.68,7.69-13.24,11.67-19.77L331,319.18c4.09-6.47,8.18-12.94,12.45-19.3,2.12-3.19,4.38-6.28,6.52-9.45s4.19-6.4,6.23-9.63a.22.22,0,0,1,.3-.07.21.21,0,0,1,.07.3Z"/><path class="cls-3" d="M349.9,303.11c-1.85,2.58-3.56,5.24-5.27,7.91s-3.32,5.4-4.94,8.12-3.23,5.46-4.87,8.17-3.33,5.4-5.21,8a.22.22,0,0,1-.31.05.22.22,0,0,1-.07-.28c1.44-2.83,3.07-5.55,4.71-8.27s3.35-5.38,5.08-8,3.47-5.32,5.22-8,3.51-5.29,5.3-7.91a.22.22,0,0,1,.36.24Z"/><path class="cls-7" d="M411.59,310.38c-.12,2.65-1.28,5.24-2.43,7.73-10.88,23.46-23.36,46.24-36,68.92a18.44,18.44,0,0,1-4.07,5.52c-1.78,1.45-4.35,2.11-6.07,1-2-1.35-2-4.36-1.68-6.94,1.36-10.54,5.44-20.8,9.95-30.73a353.08,353.08,0,0,1,24.83-45.42c1.39-2.15,2.87-4.35,5-5.74A6.63,6.63,0,0,1,411.59,310.38Z"/><path class="cls-7" d="M363.22,414.92a7.41,7.41,0,0,1,1,3.64,3,3,0,0,1-2.18,2.8,3.92,3.92,0,0,1-2.92-1,29.46,29.46,0,0,1-3.19-3l-8.33-8.76a7.25,7.25,0,0,1-1.58-2.12c-2.05-4.9,4.4-5.82,7.28-3.54A35,35,0,0,1,363.22,414.92Z"/><path class="cls-3" d="M294.15,378.2a63.53,63.53,0,0,1,11.61-.85,55.31,55.31,0,0,1,11.52,1.6,95.13,95.13,0,0,1,21.63,8.5,88.23,88.23,0,0,1,19,13.47,59.84,59.84,0,0,1,13.59,18.83.22.22,0,0,1-.11.29.24.24,0,0,1-.29-.1,70.33,70.33,0,0,0-13.9-18.28,87.47,87.47,0,0,0-18.65-13.51,92.42,92.42,0,0,0-21.36-8.75,53.76,53.76,0,0,0-11.43-1.62,57.69,57.69,0,0,0-11.51.85.23.23,0,0,1-.26-.18.22.22,0,0,1,.18-.25Z"/><path class="cls-3" d="M338.33,417c-3.74-1.4-7.43-2.93-11-4.69a117.5,117.5,0,0,1-10.52-5.72,98.36,98.36,0,0,1-9.85-6.85,71.55,71.55,0,0,1-8.78-8.18.22.22,0,0,1,0-.31.23.23,0,0,1,.29,0c3,2.61,6,5.22,9.11,7.68s6.31,4.81,9.63,7a106.62,106.62,0,0,0,10.31,6,100.93,100.93,0,0,0,11,4.7.22.22,0,0,1,.13.28.22.22,0,0,1-.28.13Z"/><path class="cls-3" d="M330.21,389.36a53.64,53.64,0,0,0-6-2.16,55.27,55.27,0,0,0-6.21-1.43q-3.13-.54-6.3-.88c-2.1-.22-4.21-.41-6.33-.69a.22.22,0,0,1-.19-.24.22.22,0,0,1,.2-.19,30.15,30.15,0,0,1,6.44.1,50.72,50.72,0,0,1,6.34,1.13c2.08.51,4.15,1.1,6.18,1.76s4,1.4,6,2.19a.23.23,0,0,1,.13.29.22.22,0,0,1-.29.12Z"/><path class="cls-3" d="M325,391.52a24.8,24.8,0,0,0-4.58-1.08c-.78-.12-1.56-.23-2.32-.39a8.52,8.52,0,0,1-2.26-.73.23.23,0,0,1-.1-.31.23.23,0,0,1,.17-.12,6.8,6.8,0,0,1,2.39.15,18.7,18.7,0,0,1,2.3.64c1.51.51,3,1,4.53,1.42a.22.22,0,0,1,.16.27.23.23,0,0,1-.27.16Z"/><path class="cls-3" d="M381.56,281.54a3.7,3.7,0,0,1-4.89.94,4,4,0,0,1-1.7-2.14,3.23,3.23,0,0,1-.13-1.46,3.15,3.15,0,0,1,.59-1.4,4.61,4.61,0,0,1,2.36-1.68,3.69,3.69,0,0,1,3,.44,3.37,3.37,0,0,1,1.52,2.59A4.16,4.16,0,0,1,381.56,281.54Zm-.63-.42a2.25,2.25,0,0,0,.28-1,2.91,2.91,0,0,0-.21-1,3.49,3.49,0,0,0-1.14-1.4,2.73,2.73,0,0,0-3.39.61,1.81,1.81,0,0,0-.52,1.75,2.88,2.88,0,0,0,1.15,1.74,2.73,2.73,0,0,0,2.07.5A2.61,2.61,0,0,0,380.93,281.12Z"/><path class="cls-3" d="M367,284.38a2.67,2.67,0,0,1-1.2-1.51,2.31,2.31,0,0,1,.18-1.93,4.84,4.84,0,0,1,.55-.75,2.15,2.15,0,0,1,.89-.61,3,3,0,0,1,2.08.07,2.73,2.73,0,0,1,1.63,1.54,2.54,2.54,0,0,1,.12,1.23,2.89,2.89,0,0,1-.39,1.11,2.49,2.49,0,0,1-1.82,1.25A3.33,3.33,0,0,1,367,284.38Zm.33-.68a1.28,1.28,0,0,0,1.26-.23,3.91,3.91,0,0,0,.76-.84,1.18,1.18,0,0,0-.43-1.77,1.82,1.82,0,0,0-1.22-.32,1,1,0,0,0-.54.26,3.47,3.47,0,0,0-.53.56,1.5,1.5,0,0,0-.22,1.32A1.61,1.61,0,0,0,367.37,283.7Z"/><path class="cls-3" d="M376.44,287.92a2.12,2.12,0,0,1-1.21,2.53,2.23,2.23,0,0,1-1.55,0,2.17,2.17,0,0,1-1.24-1.13,2.36,2.36,0,0,1,0-1.77,2.16,2.16,0,0,1,3.2-1.06,1.67,1.67,0,0,1,.82,1.49.39.39,0,0,1-.42.36.35.35,0,0,1-.18-.06l-.11-.07a1.88,1.88,0,0,0-1.41-.28,1,1,0,0,0-.61,1,1,1,0,0,0,1.27.81,1.18,1.18,0,0,0,.76-1.53.37.37,0,0,1,.17-.51.39.39,0,0,1,.51.18l0,.06Z"/><path class="cls-3" d="M379.68,344.07a4.26,4.26,0,0,1-5.09-2.6,4.58,4.58,0,0,1,0-3.12,3.42,3.42,0,0,1,2.43-2.27,5.19,5.19,0,0,1,3.32.15,4.23,4.23,0,0,1,2.44,2.54,3.85,3.85,0,0,1-.45,3.41A4.75,4.75,0,0,1,379.68,344.07Zm-.28-.81a2.6,2.6,0,0,0,1-.72,3.19,3.19,0,0,0,.51-1.05,4,4,0,0,0-.05-2.07,3.14,3.14,0,0,0-3.5-1.84,2.18,2.18,0,0,0-1,.36,2.13,2.13,0,0,0-.71.85,3.28,3.28,0,0,0-.18,2.39,3.15,3.15,0,0,0,1.53,1.91A3,3,0,0,0,379.4,343.26Z"/><path class="cls-3" d="M370.55,346.23a2.42,2.42,0,0,1-2.87,1.42,2.53,2.53,0,0,1-1.4-1.09,2.43,2.43,0,0,1-.32-1.9,2.68,2.68,0,0,1,1.22-1.63,2.54,2.54,0,0,1,2.18-.19,2.46,2.46,0,0,1,1.46,1.5,1.94,1.94,0,0,1-.3,1.93.45.45,0,0,1-.64,0,.44.44,0,0,1-.12-.18l-.05-.14a2.22,2.22,0,0,0-1.08-1.26,1.13,1.13,0,0,0-1.23.45,1,1,0,0,0-.1.87,1.22,1.22,0,0,0,.68.76,1.34,1.34,0,0,0,1.76-.85.43.43,0,0,1,.85.18l0,.08Z"/><path class="cls-3" d="M326.4,372a4.32,4.32,0,0,1-1.81,2.71,3.81,3.81,0,0,1-3.21.64,8.74,8.74,0,0,1-1.51-.57,3.49,3.49,0,0,1-1.36-1.12,5.1,5.1,0,0,1-.82-3.34,4.58,4.58,0,0,1,1.66-3.23,3.24,3.24,0,0,1,.89-.49,4.79,4.79,0,0,1,.92-.24,4.53,4.53,0,0,1,1.87.08,4.34,4.34,0,0,1,2.86,2.17A5.13,5.13,0,0,1,326.4,372Zm-.85-.13a2.81,2.81,0,0,0-.94-2.33,4.83,4.83,0,0,0-2.06-1.13,2.66,2.66,0,0,0-1.12-.08,3.33,3.33,0,0,0-.55.1,2.66,2.66,0,0,0-.45.2,3,3,0,0,0-1.22,1.91,3.6,3.6,0,0,0,.26,2.49,2.18,2.18,0,0,0,.87.86,6.13,6.13,0,0,0,1.28.59,2.91,2.91,0,0,0,2.55-.37A3.23,3.23,0,0,0,325.55,371.88Z"/><path class="cls-3" d="M372.78,404.46a2.34,2.34,0,0,1-1,1.42,2.06,2.06,0,0,1-1.69.35,4.48,4.48,0,0,1-.78-.28,1.93,1.93,0,0,1-.75-.59,2.72,2.72,0,0,1-.48-1.78,2.48,2.48,0,0,1,.89-1.79,2.32,2.32,0,0,1,1-.42,2.55,2.55,0,0,1,1,0,2.23,2.23,0,0,1,1.54,1.22A2.94,2.94,0,0,1,372.78,404.46Zm-.66-.09a1.18,1.18,0,0,0-.52-1,3.26,3.26,0,0,0-.92-.42,1,1,0,0,0-1.38.82,1.59,1.59,0,0,0,.05,1.12.8.8,0,0,0,.36.39,2.7,2.7,0,0,0,.61.31,1.3,1.3,0,0,0,1.17-.16A1.44,1.44,0,0,0,372.12,404.37Z"/><path class="cls-2" d="M333.2,361.37a3.69,3.69,0,1,1-1.71-4.94A3.69,3.69,0,0,1,333.2,361.37Z"/><path class="cls-2" d="M318.89,360.73a2.19,2.19,0,1,1-1-2.93A2.19,2.19,0,0,1,318.89,360.73Z"/><path class="cls-2" d="M328.89,348.83a1.62,1.62,0,1,1-.74-2.16A1.62,1.62,0,0,1,328.89,348.83Z"/><path class="cls-2" d="M373.1,357a3,3,0,1,1-.61-4.2A3,3,0,0,1,373.1,357Z"/><path class="cls-2" d="M359.09,360.12a1.86,1.86,0,1,1-.37-2.6A1.86,1.86,0,0,1,359.09,360.12Z"/><path class="cls-2" d="M365.28,369a1.46,1.46,0,1,1-.29-2A1.46,1.46,0,0,1,365.28,369Z"/><path class="cls-3" d="M441.6,254.75a47.37,47.37,0,0,1,4.25,3.13,13.64,13.64,0,0,1,3.42,4.11,12.31,12.31,0,0,1,1.25,5.25,17.57,17.57,0,0,1-.67,5.27.22.22,0,0,1-.27.16.22.22,0,0,1-.16-.22c0-1.76.11-3.48.07-5.19a13.59,13.59,0,0,0-.93-4.94,11.72,11.72,0,0,0-3-4.1,32.84,32.84,0,0,0-4.18-3.11.21.21,0,0,1-.07-.3.22.22,0,0,1,.3-.07Z"/><path class="cls-3" d="M442.65,258.9a17.67,17.67,0,0,1,2.85,3.79,8.67,8.67,0,0,1,.87,2.25,4.73,4.73,0,0,1,0,2.42.22.22,0,0,1-.28.15.23.23,0,0,1-.15-.14,17.41,17.41,0,0,1-.57-2.2,20.83,20.83,0,0,0-.57-2.16,8.71,8.71,0,0,0-2.44-3.79.22.22,0,0,1,.29-.33Z"/><path class="cls-3" d="M404.06,294.92a10.11,10.11,0,0,1-3.16-5.13,14.79,14.79,0,0,1-.33-6.07,20.48,20.48,0,0,1,1.89-5.79,28.1,28.1,0,0,1,3.2-5.11.23.23,0,0,1,.38.23c-.82,1.84-1.79,3.57-2.66,5.33a24.8,24.8,0,0,0-2,5.48,12.81,12.81,0,0,0,0,5.81,9,9,0,0,0,3,4.91.22.22,0,0,1-.27.35Z"/><path class="cls-3" d="M405.29,290.27a12.24,12.24,0,0,1-1-5.12,7.9,7.9,0,0,1,.49-2.63,4.77,4.77,0,0,1,1.54-2.18.22.22,0,0,1,.32,0,.22.22,0,0,1,0,.22c-.3.81-.63,1.53-.92,2.29a12.46,12.46,0,0,0-.68,2.33,7.4,7.4,0,0,0,.65,4.85.24.24,0,0,1-.09.3.22.22,0,0,1-.3-.09Z"/><path class="cls-3" d="M451.31,283.23a6.64,6.64,0,0,1-3.05,5.33,5.56,5.56,0,0,1-3.16.81,4.31,4.31,0,0,1-3-1.27.23.23,0,0,1,0-.32.24.24,0,0,1,.23,0h0a10.25,10.25,0,0,0,2.77.59,6,6,0,0,0,2.74-.46,5.08,5.08,0,0,0,3-4.65.21.21,0,0,1,.21-.22.22.22,0,0,1,.23.21Z"/><path class="cls-3" d="M372,220.49a13.17,13.17,0,0,0-7.78.35,14.49,14.49,0,0,0-6.38,4.44,17.35,17.35,0,0,0-3.4,7,24.61,24.61,0,0,0-.5,7.81.22.22,0,0,1-.2.24.23.23,0,0,1-.23-.16,16,16,0,0,1-.06-8.13,16.48,16.48,0,0,1,3.79-7.23,16.08,16.08,0,0,1,6.83-4.37,14.38,14.38,0,0,1,8-.33.21.21,0,0,1,.16.26.21.21,0,0,1-.26.16Z"/><path class="cls-3" d="M365.33,223.7a8.46,8.46,0,0,0-5.37,3.57,16.21,16.21,0,0,0-1.59,2.85c-.44,1-.81,2-1.29,3.06a.23.23,0,0,1-.3.12.23.23,0,0,1-.13-.21,8.16,8.16,0,0,1,.78-3.39,10.91,10.91,0,0,1,1.92-2.93,11.56,11.56,0,0,1,5.9-3.5.21.21,0,1,1,.09.42Z"/><path class="cls-3" d="M392.91,223.58a18.28,18.28,0,0,1,5.28-1.32,14.24,14.24,0,0,1,5.45.72,13.43,13.43,0,0,1,4.77,2.82,11.69,11.69,0,0,1,3.14,4.51.22.22,0,0,1-.38.21,27.52,27.52,0,0,0-3.46-4,15.2,15.2,0,0,0-4.35-2.84,12.23,12.23,0,0,0-5.14-1,15.32,15.32,0,0,0-5.16,1.26.22.22,0,0,1-.28-.12.22.22,0,0,1,.12-.29Z"/><path class="cls-3" d="M398.37,225.59A13.48,13.48,0,0,1,402,226a6,6,0,0,1,1.71.76,3.06,3.06,0,0,1,1.21,1.42.24.24,0,0,1-.14.31.2.2,0,0,1-.17,0h0a8.35,8.35,0,0,1-1.47-.86c-.46-.31-.92-.62-1.42-.89a5.65,5.65,0,0,0-3.3-.72.22.22,0,1,1,0-.43Z"/><path class="cls-3" d="M336.85,285a6.69,6.69,0,0,1-2.51-3.34,8.53,8.53,0,0,1-.38-4.2,9.24,9.24,0,0,1,1.72-3.91,8.85,8.85,0,0,1,3.23-2.7.23.23,0,0,1,.3.11.23.23,0,0,1,0,.25,35,35,0,0,0-2.67,3,10.33,10.33,0,0,0-1.77,3.46,7,7,0,0,0,0,3.89,5.71,5.71,0,0,0,2.31,3.12.21.21,0,0,1,.07.3.22.22,0,0,1-.3.07Z"/><path class="cls-3" d="M337.34,281a7.75,7.75,0,0,1-.45-2.64,3.28,3.28,0,0,1,.29-1.37,1.77,1.77,0,0,1,1-1,.26.26,0,0,1,.32.16.49.49,0,0,1,0,.12v0a3.58,3.58,0,0,1-.39,1.13c-.15.34-.32.68-.45,1.06a2.93,2.93,0,0,0,.09,2.34.23.23,0,0,1-.1.3.22.22,0,0,1-.29-.1Z"/><path class="cls-3" d="M359.13,261.62a12.58,12.58,0,0,1,.43,5,7.74,7.74,0,0,1-.71,2.48,4.7,4.7,0,0,1-1.66,2,.23.23,0,0,1-.32-.07.24.24,0,0,1,0-.22c.34-.77.72-1.43,1.06-2.14a13.5,13.5,0,0,0,.87-2.19,7.54,7.54,0,0,0-.07-4.74.21.21,0,0,1,.13-.28.21.21,0,0,1,.28.13Z"/><path class="cls-3" d="M381.8,260.25a4.5,4.5,0,0,1-2.46-.89,2.71,2.71,0,0,1-.87-1.08,1.51,1.51,0,0,1,0-1.4.25.25,0,0,1,.34-.09.3.3,0,0,1,.08.08v0a5.58,5.58,0,0,1,.49,1,4.91,4.91,0,0,0,.48.94,2.1,2.1,0,0,0,1.89,1,.22.22,0,0,1,.24.2.21.21,0,0,1-.19.24Z"/><path class="cls-3" d="M430.15,251.07a33.48,33.48,0,0,1-6.56-3.77,18.55,18.55,0,0,1-2.82-2.57,10.92,10.92,0,0,1-2-3.21.22.22,0,0,1,.37-.23c.88.9,1.65,1.84,2.46,2.76a35.38,35.38,0,0,0,2.55,2.65,19.1,19.1,0,0,0,6.22,4,.21.21,0,0,1,.12.28.21.21,0,0,1-.28.13Z"/><path class="cls-3" d="M432.05,278.13a5.3,5.3,0,0,0-5.74-1,10.07,10.07,0,0,0-2.59,1.6c-.8.64-1.55,1.35-2.42,2a.21.21,0,0,1-.31,0,.23.23,0,0,1,0-.24,7.82,7.82,0,0,1,2.11-2.54,8.24,8.24,0,0,1,3-1.54,6.87,6.87,0,0,1,3.34-.05,7,7,0,0,1,2.93,1.51.21.21,0,0,1,0,.31.22.22,0,0,1-.31,0Z"/><path class="cls-3" d="M379.38,235.76a14,14,0,0,0,1,3,16.12,16.12,0,0,0,1.64,2.66,20.6,20.6,0,0,0,4.59,4.25c3.48,2.38,7.55,3.66,11.58,4.89s8.19,2.37,12,4.52a23.06,23.06,0,0,1,5.13,3.94,18.39,18.39,0,0,1,2,2.58,14.48,14.48,0,0,1,1.35,2.94.23.23,0,0,1-.42.16,19.59,19.59,0,0,0-8.55-8.72c-3.61-2.09-7.67-3.32-11.68-4.67s-8.09-2.77-11.6-5.26a20.8,20.8,0,0,1-4.66-4.37,14.64,14.64,0,0,1-2.7-5.8.22.22,0,0,1,.17-.26.23.23,0,0,1,.26.17Z"/><path class="cls-3" d="M393.56,245.13a19,19,0,0,1-4.93-2.41,10.17,10.17,0,0,1-2.07-1.86,5.89,5.89,0,0,1-1.32-2.46.23.23,0,0,1,.17-.27.25.25,0,0,1,.22.06c.64.66,1.16,1.34,1.72,2a22.74,22.74,0,0,0,1.77,1.91,10.4,10.4,0,0,0,4.57,2.6.22.22,0,0,1-.11.43Z"/><path class="cls-3" d="M377.64,229.89a2.28,2.28,0,0,1-3,.26,2.42,2.42,0,0,1-.9-1.4,2,2,0,0,1,0-.9,1.91,1.91,0,0,1,.46-.81,2.78,2.78,0,0,1,1.54-.88,2.25,2.25,0,0,1,1.82.46,2.05,2.05,0,0,1,.76,1.68A2.5,2.5,0,0,1,377.64,229.89Zm-.36-.29a1.34,1.34,0,0,0,.17-1.22,2.08,2.08,0,0,0-.6-.92,1.68,1.68,0,0,0-2.11.16c-.67.44-.52,1.58.16,2.16a1.65,1.65,0,0,0,1.23.43A1.57,1.57,0,0,0,377.28,229.6Z"/><path class="cls-3" d="M368.61,230.7a1.57,1.57,0,0,1-.4-2.16,3.13,3.13,0,0,1,.38-.42,1.28,1.28,0,0,1,.58-.32,1.88,1.88,0,0,1,1.26.18,1.69,1.69,0,0,1,.9,1,1.72,1.72,0,0,1-.31,1.41,1.57,1.57,0,0,1-1.19.64A2,2,0,0,1,368.61,230.7Zm.24-.39a.84.84,0,0,0,.79-.06,2.33,2.33,0,0,0,.51-.47.71.71,0,0,0-.15-1.1,1,1,0,0,0-.72-.27.73.73,0,0,0-.34.12,1.83,1.83,0,0,0-.36.31A1,1,0,0,0,368.85,230.31Z"/><path class="cls-3" d="M373.89,233.5a1,1,0,0,1-1.86.59,1,1,0,1,1,1.85-.56"/><path class="cls-3" d="M374.11,233.45a1.3,1.3,0,0,1-.9,1.46,1.35,1.35,0,0,1-1.62-.87,1.4,1.4,0,0,1,1-1.79,1.22,1.22,0,0,1,1.5,1.23.24.24,0,0,1-.27.2.22.22,0,0,1-.11-.05l-.07-.06a1.18,1.18,0,0,0-.84-.26.59.59,0,0,0-.43.55c-.05.28.34.64.72.58a.73.73,0,0,0,.56-.89.21.21,0,0,1,.13-.29.23.23,0,0,1,.3.14.06.06,0,0,1,0,0Z"/><path class="cls-3" d="M416.11,289a2.25,2.25,0,0,1-3-.44,2.45,2.45,0,0,1-.56-1.57,2.16,2.16,0,0,1,.22-.88,2,2,0,0,1,.63-.68,2.79,2.79,0,0,1,1.7-.5,2.25,2.25,0,0,1,1.67.87,2,2,0,0,1,.36,1.8A2.55,2.55,0,0,1,416.11,289Zm-.27-.36a1.38,1.38,0,0,0,.44-1.15,2.17,2.17,0,0,0-.38-1,1.68,1.68,0,0,0-2.08-.33,1.42,1.42,0,0,0-.34,2.15,1.7,1.7,0,0,0,1.1.7A1.61,1.61,0,0,0,415.84,288.62Z"/><path class="cls-3" d="M411.87,291.64a1.3,1.3,0,0,1-1.21,1.21,1.35,1.35,0,0,1-1.39-1.22,1.41,1.41,0,0,1,1.41-1.5,1.21,1.21,0,0,1,1.18,1.54.24.24,0,0,1-.31.13.31.31,0,0,1-.09-.07l-.06-.07a1.13,1.13,0,0,0-.76-.45.6.6,0,0,0-.55.44c-.1.26.19.69.57.72a.73.73,0,0,0,.75-.73.23.23,0,1,1,.46-.06v.05Z"/><path class="cls-3" d="M430.3,259.22a1,1,0,1,1-1.38-.65,1,1,0,0,1,1.38.67"/><path class="cls-3" d="M430.52,259.17a1.3,1.3,0,0,1-.9,1.46,1.36,1.36,0,0,1-1.62-.88,1.39,1.39,0,0,1,1-1.78,1.21,1.21,0,0,1,1.5,1.23.24.24,0,0,1-.27.2l-.11,0-.07-.06a1.14,1.14,0,0,0-.84-.26.59.59,0,0,0-.43.55c-.05.28.34.64.72.58a.73.73,0,0,0,.56-.89.23.23,0,0,1,.14-.3.23.23,0,0,1,.29.14.09.09,0,0,1,0,.05Z"/><path class="cls-3" d="M434.13,258.29a1.55,1.55,0,0,1,.27-2.14,4,4,0,0,1,.48-.28,1.26,1.26,0,0,1,.64-.11,1.8,1.8,0,0,1,1.12.54,1.54,1.54,0,0,1-.19,2.45,1.49,1.49,0,0,1-1.3.25A2,2,0,0,1,434.13,258.29Zm.34-.3a.76.76,0,0,0,.75.18,2.21,2.21,0,0,0,.62-.28.7.7,0,0,0,.19-1.07,1.06,1.06,0,0,0-.59-.46.56.56,0,0,0-.36,0,2.3,2.3,0,0,0-.42.17A.94.94,0,0,0,434.47,258Z"/><path class="cls-3" d="M436.33,263.8a1.28,1.28,0,0,1-1.27,1.09,1.33,1.33,0,0,1-1.26-1.3,1.37,1.37,0,0,1,1.49-1.36,1.19,1.19,0,0,1,1,1.59.23.23,0,0,1-.4,0l-.05-.07a1.08,1.08,0,0,0-.71-.5.58.58,0,0,0-.56.39c-.13.24.13.69.5.75a.71.71,0,0,0,.78-.66.24.24,0,0,1,.22-.24.22.22,0,0,1,.23.22s0,0,0,0Z"/><path class="cls-3" d="M437.47,281.08a1,1,0,1,1-1.38-.65,1,1,0,0,1,1.38.65"/><path class="cls-3" d="M437.69,281a1.3,1.3,0,0,1-.9,1.46,1.37,1.37,0,0,1-1.63-.88,1.4,1.4,0,0,1,1-1.78,1.21,1.21,0,0,1,1.5,1.23.24.24,0,0,1-.27.2l-.11-.05-.07-.06a1.16,1.16,0,0,0-.85-.26.59.59,0,0,0-.43.55c0,.28.35.64.72.58a.73.73,0,0,0,.56-.89.23.23,0,1,1,.44-.16s0,0,0,0Z"/><path class="cls-3" d="M443.82,283.74a2.24,2.24,0,0,1-2.29,1.95,2.27,2.27,0,1,1,.38-4.52,2.16,2.16,0,0,1,1.89,2.62.23.23,0,0,1-.29.15.22.22,0,0,1-.15-.17v0a2,2,0,0,0-1.56-1.52,1.54,1.54,0,0,0-1.58,1.24,1.59,1.59,0,0,0,1.36,1.76,1.67,1.67,0,0,0,1.8-1.52.22.22,0,0,1,.24-.21.21.21,0,0,1,.21.23Z"/><path class="cls-3" d="M347.61,266.44a1,1,0,0,1-.88-1.7A1,1,0,0,1,348,265a1,1,0,0,1-.42,1.44"/><path class="cls-3" d="M347.69,266.65a1.27,1.27,0,0,1-1.55-.63,1.31,1.31,0,0,1,.57-1.71,1.37,1.37,0,0,1,1.89.69,1.19,1.19,0,0,1-.94,1.65.23.23,0,0,1-.23-.22.43.43,0,0,1,0-.12l.05-.08a1.16,1.16,0,0,0,.11-.86.58.58,0,0,0-.6-.32.62.62,0,0,0-.44.79.71.71,0,0,0,.95.39.23.23,0,0,1,.31.09.23.23,0,0,1-.09.31h-.05Z"/><path class="cls-3" d="M348.84,262.36a2.22,2.22,0,0,1-.76-2.88,2.31,2.31,0,0,1,1.21-1.11,2.07,2.07,0,0,1,.87-.14,1.89,1.89,0,0,1,.85.31,2.66,2.66,0,0,1,1.1,1.34,2.19,2.19,0,0,1-.14,1.83,2,2,0,0,1-1.48,1A2.46,2.46,0,0,1,348.84,262.36Zm.22-.39a1.33,1.33,0,0,0,1.2,0,2,2,0,0,0,.79-.74,1.64,1.64,0,0,0-.5-2c-.54-.57-1.61-.24-2.06.52a1.62,1.62,0,0,0-.21,1.25A1.55,1.55,0,0,0,349.06,262Z"/></svg>